solid AssimpScene
 facet normal -0.894484043 0.043002706 -0.445027053
  outer loop
  vertex -5 31.6767998 -9.08187962
  vertex -5 32.2556 -9.02595043
  vertex -4.5 31.7518997 -10.0796003
  endloop
 endfacet

 facet normal -0.447781801 -0.17044194 0.877747655
  outer loop
  vertex -4.5 23.6896992 12.7496004
  vertex -11.5 24.2003994 9.27772999
  vertex -5.5 -1.32749999 7.38157988
  endloop
 endfacet

 facet normal -0.713415921 -0.128976986 0.688768983
  outer loop
  vertex -12 24.2276993 8.7649498
  vertex -11.5 24.2003994 9.27772999
  vertex -12 24.7205009 8.85723019
  endloop
 endfacet

 facet normal 0.447781801 -0.17044194 0.877747655
  outer loop
  vertex 11.5 24.2003994 9.27772999
  vertex 4.5 23.6896992 12.7496004
  vertex 5.5 -1.32749999 7.38157988
  endloop
 endfacet

 facet normal 0.537566304 -0.187414095 0.822130442
  outer loop
  vertex 11.5 24.2003994 9.27772999
  vertex 5.5 -1.32749999 7.38157988
  vertex 5.5 -2.00291991 7.22761011
  endloop
 endfacet

 facet normal 0.694758892 -0.0910848752 0.713451862
  outer loop
  vertex 11.5 24.2003994 9.27772999
  vertex 12 24.7205009 8.85723019
  vertex 11.5 24.8505993 9.36073971
  endloop
 endfacet

 facet normal 0.95724988 -0.233456999 0.17079398
  outer loop
  vertex 5.5 -5.95396996 4.56072998
  vertex 12 23.0900002 7.83017015
  vertex 12 23.3859997 8.23476982
  endloop
 endfacet

 facet normal -0.448148072 -0.123954013 0.885324121
  outer loop
  vertex -4.5 24.3267994 12.8388004
  vertex -11.5 24.2003994 9.27772999
  vertex -4.5 23.6896992 12.7496004
  endloop
 endfacet

 facet normal -0.446496189 -0.0285076108 0.894331336
  outer loop
  vertex -11.5 24.8505993 9.36073971
  vertex -4.5 24.3267994 12.8388004
  vertex -4.5 24.9699001 12.8592997
  endloop
 endfacet

 facet normal -0.448886961 -0.113164991 0.886393964
  outer loop
  vertex -4.5 24.3267994 12.8388004
  vertex -11.5 24.8505993 9.36073971
  vertex -11.5 24.2003994 9.27772999
  endloop
 endfacet

 facet normal -0.455041975 0.120720997 0.882248998
  outer loop
  vertex -11.5 24.8505993 9.36073971
  vertex -4.5 33.544899 11.7814999
  vertex -11.5 25.5 9.27188015
  endloop
 endfacet

 facet normal -0.694758892 -0.0910848752 0.713451862
  outer loop
  vertex -11.5 24.2003994 9.27772999
  vertex -11.5 24.8505993 9.36073971
  vertex -12 24.7205009 8.85723019
  endloop
 endfacet

 facet normal -0.900952578 0.0417346843 -0.431905836
  outer loop
  vertex -12 25.2075005 4.8949399
  vertex -5 32.2556 -9.02595043
  vertex -5 31.6767998 -9.08187962
  endloop
 endfacet

 facet normal 0.978908598 -0.190201923 -0.0745733678
  outer loop
  vertex 12 22.9004993 6.36991978
  vertex 5.5 -7.01197004 -2.66125011
  vertex 12 23.0834999 5.90317011
  endloop
 endfacet

 facet normal -0.83528167 0.530832767 0.143251941
  outer loop
  vertex -4.5 38.644001 7.06780005
  vertex -12 26.7014008 7.5907402
  vertex -4.5 38.4687004 7.71739006
  endloop
 endfacet

 facet normal -0.826041818 0.524258852 0.206899956
  outer loop
  vertex -4.5 38.4687004 7.71739006
  vertex -12 26.7014008 7.5907402
  vertex -4.5 38.2216988 8.34325981
  endloop
 endfacet

 facet normal -0.814468801 0.512467861 0.272060931
  outer loop
  vertex -12 26.7014008 7.5907402
  vertex -4.5 37.9062004 8.93754959
  vertex -4.5 38.2216988 8.34325981
  endloop
 endfacet

 facet normal 0.448148072 -0.123954013 0.885324121
  outer loop
  vertex 4.5 23.6896992 12.7496004
  vertex 11.5 24.2003994 9.27772999
  vertex 4.5 24.3267994 12.8388004
  endloop
 endfacet

 facet normal 0.448886961 -0.113164991 0.886393964
  outer loop
  vertex 4.5 24.3267994 12.8388004
  vertex 11.5 24.2003994 9.27772999
  vertex 11.5 24.8505993 9.36073971
  endloop
 endfacet

 facet normal 0.449190795 0.11496295 0.886008501
  outer loop
  vertex 4.5 33.544899 11.7814999
  vertex 4.5 25.6114006 12.8108997
  vertex 11.5 24.8505993 9.36073971
  endloop
 endfacet

 facet normal 0.813243985 0.510852933 0.278681964
  outer loop
  vertex 12 26.4612999 8.03087044
  vertex 12 26.7014008 7.5907402
  vertex 4.5 37.9062004 8.93754959
  endloop
 endfacet

 facet normal 0.627961159 0.302278072 0.717142105
  outer loop
  vertex 11.5 25.5 9.27188015
  vertex 11.5 26.1040993 9.01725006
  vertex 4.5 34.8496017 11.4604998
  endloop
 endfacet

 facet normal 0.455041975 0.120720997 0.882248998
  outer loop
  vertex 11.5 25.5 9.27188015
  vertex 4.5 33.544899 11.7814999
  vertex 11.5 24.8505993 9.36073971
  endloop
 endfacet

 facet normal 0.692813098 0.280089021 0.664500058
  outer loop
  vertex 11.5 25.5 9.27188015
  vertex 12 25.6970005 8.6675396
  vertex 11.5 26.1040993 9.01725006
  endloop
 endfacet

 facet normal 0.896121919 0.388188988 -0.215115964
  outer loop
  vertex 5 35.9084015 -6.41849995
  vertex 12 26.6963997 6.11824989
  vertex 12 26.4533997 5.67973995
  endloop
 endfacet

 facet normal 0.898759961 0.375251979 -0.226751983
  outer loop
  vertex 5 35.6077003 -6.91613007
  vertex 5 35.9084015 -6.41849995
  vertex 12 26.4533997 5.67973995
  endloop
 endfacet

 facet normal 0.907202184 0.088813521 -0.4112131
  outer loop
  vertex 5 32.2556 -9.02595043
  vertex 5 32.8238983 -8.90320969
  vertex 12 25.2075005 4.8949399
  endloop
 endfacet

 facet normal 0.911033988 0.126096994 -0.392577022
  outer loop
  vertex 12 25.6847992 5.0482502
  vertex 12 25.2075005 4.8949399
  vertex 5 32.8238983 -8.90320969
  endloop
 endfacet

 facet normal 0.914401472 0.215751871 -0.342521787
  outer loop
  vertex 12 25.6847992 5.0482502
  vertex 5 34.3909988 -8.15509987
  vertex 12 26.1089993 5.31545019
  endloop
 endfacet

 facet normal 0.894774199 0.0942653194 -0.436455101
  outer loop
  vertex 4.5 33.024601 -9.88490963
  vertex 5 32.8238983 -8.90320969
  vertex 5 32.2556 -9.02595043
  endloop
 endfacet

 facet normal 0.911468923 0.132919982 -0.389302999
  outer loop
  vertex 5 33.3741989 -8.71531963
  vertex 12 25.6847992 5.0482502
  vertex 5 32.8238983 -8.90320969
  endloop
 endfacet

 facet normal -0.894300163 0.0437960066 -0.445319116
  outer loop
  vertex -4.5 32.3935013 -10.0165005
  vertex -4.5 31.7518997 -10.0796003
  vertex -5 32.2556 -9.02595043
  endloop
 endfacet

 facet normal 0.895793796 0.380411923 -0.229869947
  outer loop
  vertex 4.5 36.5727005 -7.2676301
  vertex 5 35.9084015 -6.41849995
  vertex 5 35.6077003 -6.91613007
  endloop
 endfacet

 facet normal -0.568019032 0.241066024 0.786919057
  outer loop
  vertex -11.5 25.5 9.27188015
  vertex -4.5 34.2061996 11.6576004
  vertex -4.5 34.8496017 11.4604998
  endloop
 endfacet

 facet normal -0.491271257 0.160398096 0.856110394
  outer loop
  vertex -4.5 34.2061996 11.6576004
  vertex -11.5 25.5 9.27188015
  vertex -4.5 33.544899 11.7814999
  endloop
 endfacet

 facet normal -0.446969867 0.0673005879 0.892013788
  outer loop
  vertex -4.5 25.6114006 12.8108997
  vertex -11.5 24.8505993 9.36073971
  vertex -4.5 24.9699001 12.8592997
  endloop
 endfacet

 facet normal -0.449190795 0.11496295 0.886008501
  outer loop
  vertex -11.5 24.8505993 9.36073971
  vertex -4.5 25.6114006 12.8108997
  vertex -4.5 33.544899 11.7814999
  endloop
 endfacet

 facet normal -0.813243985 0.510852933 0.278681964
  outer loop
  vertex -12 26.4612999 8.03087044
  vertex -4.5 37.9062004 8.93754959
  vertex -12 26.7014008 7.5907402
  endloop
 endfacet

 facet normal -0.772188067 0.464677989 0.433358997
  outer loop
  vertex -12 26.4612999 8.03087044
  vertex -12 26.1194 8.39748001
  vertex -4.5 37.0862999 10.0019999
  endloop
 endfacet

 facet normal -0.894065559 0.00159371097 -0.447933257
  outer loop
  vertex -12 24.7070007 4.86514997
  vertex -5 31.6767998 -9.08187962
  vertex -4.5 31.7518997 -10.0796003
  endloop
 endfacet

 facet normal -0.898605764 0.0260687936 -0.437981904
  outer loop
  vertex -12 24.7070007 4.86514997
  vertex -12 25.2075005 4.8949399
  vertex -5 31.6767998 -9.08187962
  endloop
 endfacet

 facet normal -0.892964244 -0.00419001095 -0.450108051
  outer loop
  vertex -4.5 31.7518997 -10.0796003
  vertex -4.5 31.1072998 -10.0735998
  vertex -12 24.7070007 4.86514997
  endloop
 endfacet

 facet normal -0.93396163 -0.0681455731 -0.350815862
  outer loop
  vertex -12 24.7070007 4.86514997
  vertex -5.5 -1.42867994 -7.36266994
  vertex -12 24.2148991 4.96074009
  endloop
 endfacet

 facet normal -0.925530672 -0.0548862778 -0.374673843
  outer loop
  vertex -12 24.7070007 4.86514997
  vertex -5.5 -0.743246019 -7.46307993
  vertex -5.5 -1.42867994 -7.36266994
  endloop
 endfacet

 facet normal -0.940666258 -0.0799551159 -0.329779059
  outer loop
  vertex -5.5 -2.1019299 -7.19944
  vertex -12 24.2148991 4.96074009
  vertex -5.5 -1.42867994 -7.36266994
  endloop
 endfacet

 facet normal -0.960260212 -0.119690023 -0.252140045
  outer loop
  vertex -12 24.2148991 4.96074009
  vertex -5.5 -3.38902998 -6.69062996
  vertex -12 23.7619991 5.17573023
  endloop
 endfacet

 facet normal 0.971579134 -0.151503012 -0.181882009
  outer loop
  vertex 5.5 -4.56072998 -5.95396996
  vertex 12 23.7619991 5.17573023
  vertex 12 23.3768005 5.49659014
  endloop
 endfacet

 facet normal -0.977227867 -0.211893961 0.011253898
  outer loop
  vertex -12 22.8393002 6.86750984
  vertex -5.5 -7.49981976 0.0514696017
  vertex -5.5 -7.46307993 0.743246019
  endloop
 endfacet

 facet normal -0.978719294 -0.203669056 -0.0250495076
  outer loop
  vertex -12 22.8393002 6.86750984
  vertex -12 22.9004993 6.36991978
  vertex -5.5 -7.47257996 -0.640745997
  endloop
 endfacet

 facet normal -0.978152394 -0.207727864 -0.00817460567
  outer loop
  vertex -12 22.8393002 6.86750984
  vertex -5.5 -7.47257996 -0.640745997
  vertex -5.5 -7.49981976 0.0514696017
  endloop
 endfacet

 facet normal 0.974125087 -0.219646022 0.0532537997
  outer loop
  vertex 12 22.9039001 7.3646698
  vertex 5.5 -7.19944 2.1019299
  vertex 5.5 -7.36266994 1.42867994
  endloop
 endfacet

 facet normal 0.705014288 -0.21432507 0.676032245
  outer loop
  vertex 12 24.2276993 8.7649498
  vertex 11.5 24.2003994 9.27772999
  vertex 5.5 -2.00291991 7.22761011
  endloop
 endfacet

 facet normal 0.713415921 -0.128976986 0.688768983
  outer loop
  vertex 12 24.7205009 8.85723019
  vertex 11.5 24.2003994 9.27772999
  vertex 12 24.2276993 8.7649498
  endloop
 endfacet

 facet normal 0.892164826 -0.00867245719 -0.451626867
  outer loop
  vertex 12 24.7070007 4.86514997
  vertex 5.5 -0.0514696017 -7.49981976
  vertex 4.5 31.1072998 -10.0735998
  endloop
 endfacet

 facet normal 0.892964244 -0.00419019116 -0.450108051
  outer loop
  vertex 12 24.7070007 4.86514997
  vertex 4.5 31.1072998 -10.0735998
  vertex 4.5 31.7518997 -10.0796003
  endloop
 endfacet

 facet normal 0.978152394 -0.207727864 -0.00817455444
  outer loop
  vertex 5.5 -7.47257996 -0.640745997
  vertex 12 22.8393002 6.86750984
  vertex 5.5 -7.49981976 0.0514696017
  endloop
 endfacet

 facet normal 0.978719294 -0.203669056 -0.0250496101
  outer loop
  vertex 5.5 -7.47257996 -0.640745997
  vertex 12 22.9004993 6.36991978
  vertex 12 22.8393002 6.86750984
  endloop
 endfacet

 facet normal 0.978757858 -0.203242972 -0.0269311983
  outer loop
  vertex 5.5 -7.47257996 -0.640745997
  vertex 5.5 -7.38157988 -1.32749999
  vertex 12 22.9004993 6.36991978
  endloop
 endfacet

 facet normal 0.979029417 -0.193598062 -0.0634141192
  outer loop
  vertex 5.5 -7.22761011 -2.00291991
  vertex 5.5 -7.01197004 -2.66125011
  vertex 12 22.9004993 6.36991978
  endloop
 endfacet

 facet normal 0.979026735 -0.198635951 -0.0452814884
  outer loop
  vertex 5.5 -7.22761011 -2.00291991
  vertex 12 22.9004993 6.36991978
  vertex 5.5 -7.38157988 -1.32749999
  endloop
 endfacet

 facet normal 0.841427624 0.534173846 0.0815954655
  outer loop
  vertex 4.5 38.7456017 6.40265989
  vertex 4.5 38.644001 7.06780005
  vertex 12 26.8243999 7.10474014
  endloop
 endfacet

 facet normal 0.83650291 0.531213939 0.134441987
  outer loop
  vertex 4.5 38.644001 7.06780005
  vertex 12 26.7014008 7.5907402
  vertex 12 26.8243999 7.10474014
  endloop
 endfacet

 facet normal 0.83528167 0.530832767 0.143251941
  outer loop
  vertex 4.5 38.644001 7.06780005
  vertex 4.5 38.4687004 7.71739006
  vertex 12 26.7014008 7.5907402
  endloop
 endfacet

 facet normal 0.845680952 0.533277929 0.0209381003
  outer loop
  vertex 4.5 38.7719994 5.73032999
  vertex 4.5 38.7456017 6.40265989
  vertex 12 26.8243999 7.10474014
  endloop
 endfacet

 facet normal 0.87417233 0.465302169 -0.138984054
  outer loop
  vertex 4.5 37.3190002 -5.49150991
  vertex 12 26.6963997 6.11824989
  vertex 4.5 37.1344986 -6.1092
  endloop
 endfacet

 facet normal 0.446969867 0.0673007816 0.892013788
  outer loop
  vertex 11.5 24.8505993 9.36073971
  vertex 4.5 25.6114006 12.8108997
  vertex 4.5 24.9699001 12.8592997
  endloop
 endfacet

 facet normal 0.446496189 -0.0285074133 0.894331336
  outer loop
  vertex 4.5 24.9699001 12.8592997
  vertex 4.5 24.3267994 12.8388004
  vertex 11.5 24.8505993 9.36073971
  endloop
 endfacet

 facet normal 0.826041698 0.524258733 0.20690091
  outer loop
  vertex 4.5 38.2216988 8.34325981
  vertex 12 26.7014008 7.5907402
  vertex 4.5 38.4687004 7.71739006
  endloop
 endfacet

 facet normal 0.814468801 0.512467861 0.272060931
  outer loop
  vertex 4.5 38.2216988 8.34325981
  vertex 4.5 37.9062004 8.93754959
  vertex 12 26.7014008 7.5907402
  endloop
 endfacet

 facet normal -0.779384673 0.474178821 0.409528881
  outer loop
  vertex -4.5 37.5261002 9.4927702
  vertex -12 26.4612999 8.03087044
  vertex -4.5 37.0862999 10.0019999
  endloop
 endfacet

 facet normal -0.798729062 0.496491015 0.33989501
  outer loop
  vertex -4.5 37.9062004 8.93754959
  vertex -12 26.4612999 8.03087044
  vertex -4.5 37.5261002 9.4927702
  endloop
 endfacet

 facet normal -0.754502833 0.44547388 0.481952876
  outer loop
  vertex -12 26.1194 8.39748001
  vertex -4.5 36.5922012 10.4587002
  vertex -4.5 37.0862999 10.0019999
  endloop
 endfacet

 facet normal -0.723643303 0.408782214 0.556091249
  outer loop
  vertex -4.5 36.5922012 10.4587002
  vertex -12 26.1194 8.39748001
  vertex -4.5 36.0500984 10.8571997
  endloop
 endfacet

 facet normal 0.772188067 0.464677989 0.433358997
  outer loop
  vertex 12 26.1194 8.39748001
  vertex 12 26.4612999 8.03087044
  vertex 4.5 37.0862999 10.0019999
  endloop
 endfacet

 facet normal 0.716751933 0.375624985 0.587513983
  outer loop
  vertex 12 25.6970005 8.6675396
  vertex 12 26.1194 8.39748001
  vertex 11.5 26.1040993 9.01725006
  endloop
 endfacet

 facet normal 0.711070061 0.392536044 0.583348036
  outer loop
  vertex 12 26.1194 8.39748001
  vertex 4.5 36.0500984 10.8571997
  vertex 11.5 26.1040993 9.01725006
  endloop
 endfacet

 facet normal 0.71587199 0.217983007 0.663333058
  outer loop
  vertex 12 25.2206993 8.82406044
  vertex 12 25.6970005 8.6675396
  vertex 11.5 25.5 9.27188015
  endloop
 endfacet

 facet normal 0.714768052 0.046275299 0.697829008
  outer loop
  vertex 12 24.7205009 8.85723019
  vertex 12 25.2206993 8.82406044
  vertex 11.5 24.8505993 9.36073971
  endloop
 endfacet

 facet normal 0.693693101 0.0976470038 0.71362108
  outer loop
  vertex 12 25.2206993 8.82406044
  vertex 11.5 25.5 9.27188015
  vertex 11.5 24.8505993 9.36073971
  endloop
 endfacet

 facet normal -0.913193882 0.255653977 -0.317360938
  outer loop
  vertex -5 34.3909988 -8.15509987
  vertex -12 26.1089993 5.31545019
  vertex -5 34.8437996 -7.79033995
  endloop
 endfacet

 facet normal -0.914401472 0.215751871 -0.342521787
  outer loop
  vertex -12 26.1089993 5.31545019
  vertex -5 34.3909988 -8.15509987
  vertex -12 25.6847992 5.0482502
  endloop
 endfacet

 facet normal -0.907202721 0.0888140723 -0.411211878
  outer loop
  vertex -12 25.2075005 4.8949399
  vertex -5 32.8238983 -8.90320969
  vertex -5 32.2556 -9.02595043
  endloop
 endfacet

 facet normal -0.911034286 0.126097038 -0.392576158
  outer loop
  vertex -5 32.8238983 -8.90320969
  vertex -12 25.2075005 4.8949399
  vertex -12 25.6847992 5.0482502
  endloop
 endfacet

 facet normal -0.911468923 0.132919982 -0.389302999
  outer loop
  vertex -5 32.8238983 -8.90320969
  vertex -12 25.6847992 5.0482502
  vertex -5 33.3741989 -8.71531963
  endloop
 endfacet

 facet normal -0.886379182 0.426820099 -0.179322049
  outer loop
  vertex -4.5 36.8848 -6.70352983
  vertex -12 26.6963997 6.11824989
  vertex -4.5 37.1344986 -6.1092
  endloop
 endfacet

 facet normal 0.895707309 0.236846104 -0.376314163
  outer loop
  vertex 5 33.8988991 -8.46481991
  vertex 4.5 34.7831993 -9.09836006
  vertex 5 34.3909988 -8.15509987
  endloop
 endfacet

 facet normal 0.91440028 0.215629086 -0.342602134
  outer loop
  vertex 12 25.6847992 5.0482502
  vertex 5 33.8988991 -8.46481991
  vertex 5 34.3909988 -8.15509987
  endloop
 endfacet

 facet normal 0.91365397 0.175130993 -0.366831958
  outer loop
  vertex 5 33.8988991 -8.46481991
  vertex 12 25.6847992 5.0482502
  vertex 5 33.3741989 -8.71531963
  endloop
 endfacet

 facet normal 0.893670797 0.138200983 -0.426910937
  outer loop
  vertex 4.5 33.024601 -9.88490963
  vertex 4.5 33.6379013 -9.6863699
  vertex 5 32.8238983 -8.90320969
  endloop
 endfacet

 facet normal 0.895169199 0.144022033 -0.421817064
  outer loop
  vertex 4.5 33.6379013 -9.6863699
  vertex 5 33.3741989 -8.71531963
  vertex 5 32.8238983 -8.90320969
  endloop
 endfacet

 facet normal 0.894300163 0.0437960066 -0.445319116
  outer loop
  vertex 4.5 32.3935013 -10.0165005
  vertex 5 32.2556 -9.02595043
  vertex 4.5 31.7518997 -10.0796003
  endloop
 endfacet

 facet normal 0.894040465 0.0914431512 -0.438554227
  outer loop
  vertex 4.5 32.3935013 -10.0165005
  vertex 4.5 33.024601 -9.88490963
  vertex 5 32.2556 -9.02595043
  endloop
 endfacet

 facet normal 0.909979522 0.301314175 -0.284863144
  outer loop
  vertex 12 26.1089993 5.31545019
  vertex 5 35.2512016 -7.37548018
  vertex 12 26.4533997 5.67973995
  endloop
 endfacet

 facet normal 0.905690134 0.334911019 -0.259923041
  outer loop
  vertex 5 35.2512016 -7.37548018
  vertex 5 35.6077003 -6.91613007
  vertex 12 26.4533997 5.67973995
  endloop
 endfacet

 facet normal 0.892965078 0.267198026 -0.36224103
  outer loop
  vertex 4.5 35.3019981 -8.71568012
  vertex 5 34.3909988 -8.15509987
  vertex 4.5 34.7831993 -9.09836006
  endloop
 endfacet

 facet normal -0.813228905 -0.231396958 0.533960879
  outer loop
  vertex -5.5 -3.29689002 6.7365098
  vertex -5.5 -2.66125011 7.01197004
  vertex -12 24.2276993 8.7649498
  endloop
 endfacet

 facet normal -0.705014288 -0.21432507 0.676032245
  outer loop
  vertex -12 24.2276993 8.7649498
  vertex -5.5 -2.00291991 7.22761011
  vertex -11.5 24.2003994 9.27772999
  endloop
 endfacet

 facet normal -0.71795398 -0.216680989 0.661506951
  outer loop
  vertex -5.5 -2.66125011 7.01197004
  vertex -5.5 -2.00291991 7.22761011
  vertex -12 24.2276993 8.7649498
  endloop
 endfacet

 facet normal -0.537566304 -0.187414095 0.822130442
  outer loop
  vertex -11.5 24.2003994 9.27772999
  vertex -5.5 -2.00291991 7.22761011
  vertex -5.5 -1.32749999 7.38157988
  endloop
 endfacet

 facet normal -0.958954275 -0.232832059 0.161851063
  outer loop
  vertex -12 23.0900002 7.83017015
  vertex -5.5 -6.34938002 3.99190998
  vertex -5.5 -5.95396996 4.56072998
  endloop
 endfacet

 facet normal -0.964470208 -0.229915008 0.130140021
  outer loop
  vertex -5.5 -6.34938002 3.99190998
  vertex -12 23.0900002 7.83017015
  vertex -5.5 -6.69062996 3.38902998
  endloop
 endfacet

 facet normal -0.968636513 -0.226616889 0.101921946
  outer loop
  vertex -5.5 -6.97478008 2.75724006
  vertex -5.5 -6.69062996 3.38902998
  vertex -12 23.0900002 7.83017015
  endloop
 endfacet

 facet normal -0.95724988 -0.233456999 0.17079398
  outer loop
  vertex -12 23.3859997 8.23476982
  vertex -12 23.0900002 7.83017015
  vertex -5.5 -5.95396996 4.56072998
  endloop
 endfacet

 facet normal 0.951379359 -0.235614091 0.198402077
  outer loop
  vertex 5.5 -5.50776005 5.09063005
  vertex 5.5 -5.95396996 4.56072998
  vertex 12 23.3859997 8.23476982
  endloop
 endfacet

 facet normal 0.940865695 -0.237904906 0.24119091
  outer loop
  vertex 5.5 -5.01456022 5.57710981
  vertex 5.5 -5.50776005 5.09063005
  vertex 12 23.3859997 8.23476982
  endloop
 endfacet

 facet normal 0.568019032 0.241066024 0.786919057
  outer loop
  vertex 4.5 34.2061996 11.6576004
  vertex 11.5 25.5 9.27188015
  vertex 4.5 34.8496017 11.4604998
  endloop
 endfacet

 facet normal 0.491271257 0.160398096 0.856110394
  outer loop
  vertex 4.5 33.544899 11.7814999
  vertex 11.5 25.5 9.27188015
  vertex 4.5 34.2061996 11.6576004
  endloop
 endfacet

 facet normal -0.71587199 0.217983007 0.663333058
  outer loop
  vertex -12 25.6970005 8.6675396
  vertex -12 25.2206993 8.82406044
  vertex -11.5 25.5 9.27188015
  endloop
 endfacet

 facet normal -0.714768052 0.046275299 0.697829008
  outer loop
  vertex -12 24.7205009 8.85723019
  vertex -11.5 24.8505993 9.36073971
  vertex -12 25.2206993 8.82406044
  endloop
 endfacet

 facet normal -0.693693101 0.0976470038 0.71362108
  outer loop
  vertex -12 25.2206993 8.82406044
  vertex -11.5 24.8505993 9.36073971
  vertex -11.5 25.5 9.27188015
  endloop
 endfacet

 facet normal -0.676114082 -0.0390763022 -0.735760033
  outer loop
  vertex -4.5 31.1072998 -10.0735998
  vertex -5.5 -0.743246019 -7.46307993
  vertex -5.5 -0.0514696017 -7.49981976
  endloop
 endfacet

 facet normal -0.892164826 -0.00867246836 -0.451626867
  outer loop
  vertex -5.5 -0.0514696017 -7.49981976
  vertex -12 24.7070007 4.86514997
  vertex -4.5 31.1072998 -10.0735998
  endloop
 endfacet

 facet normal -0.90299046 -0.0227874871 -0.42905575
  outer loop
  vertex -12 24.7070007 4.86514997
  vertex -5.5 -0.0514696017 -7.49981976
  vertex -5.5 -0.743246019 -7.46307993
  endloop
 endfacet

 facet normal -0.978757858 -0.203242972 -0.0269315969
  outer loop
  vertex -12 22.9004993 6.36991978
  vertex -5.5 -7.38157988 -1.32749999
  vertex -5.5 -7.47257996 -0.640745997
  endloop
 endfacet

 facet normal -0.979026735 -0.198635951 -0.0452814884
  outer loop
  vertex -5.5 -7.38157988 -1.32749999
  vertex -12 22.9004993 6.36991978
  vertex -5.5 -7.22761011 -2.00291991
  endloop
 endfacet

 facet normal -0.979029417 -0.193598062 -0.0634141192
  outer loop
  vertex -5.5 -7.01197004 -2.66125011
  vertex -5.5 -7.22761011 -2.00291991
  vertex -12 22.9004993 6.36991978
  endloop
 endfacet

 facet normal -0.978908598 -0.190201923 -0.0745732635
  outer loop
  vertex -5.5 -7.01197004 -2.66125011
  vertex -12 22.9004993 6.36991978
  vertex -12 23.0834999 5.90317011
  endloop
 endfacet

 facet normal -0.978742838 -0.188180968 -0.0815499872
  outer loop
  vertex -5.5 -7.01197004 -2.66125011
  vertex -12 23.0834999 5.90317011
  vertex -5.5 -6.7365098 -3.29689002
  endloop
 endfacet

 facet normal -0.976838648 -0.173535943 -0.125185952
  outer loop
  vertex -5.5 -6.01600981 -4.47858
  vertex -12 23.0834999 5.90317011
  vertex -12 23.3768005 5.49659014
  endloop
 endfacet

 facet normal -0.975887358 -0.168878064 -0.138290063
  outer loop
  vertex -5.5 -6.01600981 -4.47858
  vertex -12 23.3768005 5.49659014
  vertex -5.5 -5.57710981 -5.01456022
  endloop
 endfacet

 facet normal -0.958837509 -0.116472065 -0.258969158
  outer loop
  vertex -5.5 -2.75724006 -6.97478008
  vertex -5.5 -3.38902998 -6.69062996
  vertex -12 24.2148991 4.96074009
  endloop
 endfacet

 facet normal -0.95120436 -0.100067042 -0.291885078
  outer loop
  vertex -5.5 -2.1019299 -7.19944
  vertex -5.5 -2.75724006 -6.97478008
  vertex -12 24.2148991 4.96074009
  endloop
 endfacet

 facet normal -0.971579134 -0.151503012 -0.181882009
  outer loop
  vertex -5.5 -4.56072998 -5.95396996
  vertex -12 23.3768005 5.49659014
  vertex -12 23.7619991 5.17573023
  endloop
 endfacet

 facet normal 0.974088073 -0.161018997 -0.15882501
  outer loop
  vertex 5.5 -5.09063005 -5.50776005
  vertex 12 23.3768005 5.49659014
  vertex 5.5 -5.57710981 -5.01456022
  endloop
 endfacet

 facet normal 0.971731722 -0.152067959 -0.180589944
  outer loop
  vertex 5.5 -5.09063005 -5.50776005
  vertex 5.5 -4.56072998 -5.95396996
  vertex 12 23.3768005 5.49659014
  endloop
 endfacet

 facet normal -0.971763611 -0.223203897 0.0765208676
  outer loop
  vertex -5.5 -7.19944 2.1019299
  vertex -5.5 -6.97478008 2.75724006
  vertex -12 22.9039001 7.3646698
  endloop
 endfacet

 facet normal -0.970215559 -0.224933907 0.0899250656
  outer loop
  vertex -12 22.9039001 7.3646698
  vertex -5.5 -6.97478008 2.75724006
  vertex -12 23.0900002 7.83017015
  endloop
 endfacet

 facet normal -0.976203561 -0.215047911 0.0279428884
  outer loop
  vertex -12 22.9039001 7.3646698
  vertex -12 22.8393002 6.86750984
  vertex -5.5 -7.46307993 0.743246019
  endloop
 endfacet

 facet normal 0.976203918 -0.215046987 0.027942298
  outer loop
  vertex 5.5 -7.46307993 0.743246019
  vertex 12 22.8393002 6.86750984
  vertex 12 22.9039001 7.3646698
  endloop
 endfacet

 facet normal 0.975928426 -0.215788111 0.0316103138
  outer loop
  vertex 12 22.9039001 7.3646698
  vertex 5.5 -7.36266994 1.42867994
  vertex 5.5 -7.46307993 0.743246019
  endloop
 endfacet

 facet normal 0.977227867 -0.211893961 0.0112536978
  outer loop
  vertex 5.5 -7.49981976 0.0514696017
  vertex 12 22.8393002 6.86750984
  vertex 5.5 -7.46307993 0.743246019
  endloop
 endfacet

 facet normal 0.903504252 -0.239771038 0.35523206
  outer loop
  vertex 12 23.7733994 8.55302048
  vertex 5.5 -3.90438986 6.40357018
  vertex 5.5 -4.47858 6.01600981
  endloop
 endfacet

 facet normal 0.869030952 -0.237781987 0.433871984
  outer loop
  vertex 12 23.7733994 8.55302048
  vertex 5.5 -3.29689002 6.7365098
  vertex 5.5 -3.90438986 6.40357018
  endloop
 endfacet

 facet normal 0.833305657 -0.233706892 0.500981748
  outer loop
  vertex 12 23.7733994 8.55302048
  vertex 12 24.2276993 8.7649498
  vertex 5.5 -3.29689002 6.7365098
  endloop
 endfacet

 facet normal 0.926255703 -0.239242911 0.291226923
  outer loop
  vertex 12 23.7733994 8.55302048
  vertex 5.5 -5.01456022 5.57710981
  vertex 12 23.3859997 8.23476982
  endloop
 endfacet

 facet normal 0.925942123 -0.239273027 0.292198032
  outer loop
  vertex 12 23.7733994 8.55302048
  vertex 5.5 -4.47858 6.01600981
  vertex 5.5 -5.01456022 5.57710981
  endloop
 endfacet

 facet normal 0.71795398 -0.216680989 0.661506951
  outer loop
  vertex 5.5 -2.66125011 7.01197004
  vertex 12 24.2276993 8.7649498
  vertex 5.5 -2.00291991 7.22761011
  endloop
 endfacet

 facet normal 0.813228905 -0.231396958 0.533960879
  outer loop
  vertex 5.5 -3.29689002 6.7365098
  vertex 12 24.2276993 8.7649498
  vertex 5.5 -2.66125011 7.01197004
  endloop
 endfacet

 facet normal 0.894484043 0.043002706 -0.445027053
  outer loop
  vertex 4.5 31.7518997 -10.0796003
  vertex 5 32.2556 -9.02595043
  vertex 5 31.6767998 -9.08187962
  endloop
 endfacet

 facet normal 0.894065142 0.00159400026 -0.447934031
  outer loop
  vertex 5 31.6767998 -9.08187962
  vertex 12 24.7070007 4.86514997
  vertex 4.5 31.7518997 -10.0796003
  endloop
 endfacet

 facet normal 0.898605764 0.0260687936 -0.437981904
  outer loop
  vertex 12 24.7070007 4.86514997
  vertex 5 31.6767998 -9.08187962
  vertex 12 25.2075005 4.8949399
  endloop
 endfacet

 facet normal 0.900952578 0.0417348817 -0.431905836
  outer loop
  vertex 5 31.6767998 -9.08187962
  vertex 5 32.2556 -9.02595043
  vertex 12 25.2075005 4.8949399
  endloop
 endfacet

 facet normal 0.978742838 -0.188180968 -0.0815499872
  outer loop
  vertex 5.5 -6.7365098 -3.29689002
  vertex 12 23.0834999 5.90317011
  vertex 5.5 -7.01197004 -2.66125011
  endloop
 endfacet

 facet normal 0.978136301 -0.182372063 -0.0999490321
  outer loop
  vertex 5.5 -6.7365098 -3.29689002
  vertex 5.5 -6.40357018 -3.90438986
  vertex 12 23.0834999 5.90317011
  endloop
 endfacet

 facet normal 0.976838648 -0.173535943 -0.125185952
  outer loop
  vertex 5.5 -6.01600981 -4.47858
  vertex 12 23.3768005 5.49659014
  vertex 12 23.0834999 5.90317011
  endloop
 endfacet

 facet normal 0.977216959 -0.17591998 -0.118739992
  outer loop
  vertex 5.5 -6.40357018 -3.90438986
  vertex 5.5 -6.01600981 -4.47858
  vertex 12 23.0834999 5.90317011
  endloop
 endfacet

 facet normal 0.975887358 -0.168878064 -0.138290063
  outer loop
  vertex 12 23.3768005 5.49659014
  vertex 5.5 -6.01600981 -4.47858
  vertex 5.5 -5.57710981 -5.01456022
  endloop
 endfacet

 facet normal -0.847997844 0.525593936 -0.0681952909
  outer loop
  vertex -4.5 38.7229004 5.05926991
  vertex -4.5 37.4361992 -4.8575902
  vertex -12 26.8227005 6.60340977
  endloop
 endfacet

 facet normal 0.869534135 0.477943093 -0.124422006
  outer loop
  vertex 12 26.6963997 6.11824989
  vertex 4.5 37.3190002 -5.49150991
  vertex 12 26.8227005 6.60340977
  endloop
 endfacet

 facet normal 0.857859969 0.505319953 -0.0934242979
  outer loop
  vertex 12 26.8227005 6.60340977
  vertex 4.5 37.3190002 -5.49150991
  vertex 4.5 37.4361992 -4.8575902
  endloop
 endfacet

 facet normal 0.847997904 0.525593936 -0.0681952015
  outer loop
  vertex 12 26.8227005 6.60340977
  vertex 4.5 37.4361992 -4.8575902
  vertex 4.5 38.7229004 5.05926991
  endloop
 endfacet

 facet normal 0.847045124 0.531518042 -0.00180178019
  outer loop
  vertex 12 26.8227005 6.60340977
  vertex 4.5 38.7719994 5.73032999
  vertex 12 26.8243999 7.10474014
  endloop
 endfacet

 facet normal 0.847623467 0.529183686 -0.0387189761
  outer loop
  vertex 12 26.8227005 6.60340977
  vertex 4.5 38.7229004 5.05926991
  vertex 4.5 38.7719994 5.73032999
  endloop
 endfacet

 facet normal 0.779384673 0.474178821 0.409528881
  outer loop
  vertex 4.5 37.5261002 9.4927702
  vertex 4.5 37.0862999 10.0019999
  vertex 12 26.4612999 8.03087044
  endloop
 endfacet

 facet normal 0.798729062 0.496491015 0.33989501
  outer loop
  vertex 12 26.4612999 8.03087044
  vertex 4.5 37.9062004 8.93754959
  vertex 4.5 37.5261002 9.4927702
  endloop
 endfacet

 facet normal -0.683408082 0.363906026 0.632871091
  outer loop
  vertex -11.5 26.1040993 9.01725006
  vertex -4.5 35.4668007 11.1926003
  vertex -4.5 36.0500984 10.8571997
  endloop
 endfacet

 facet normal -0.716751933 0.375624985 0.587513983
  outer loop
  vertex -11.5 26.1040993 9.01725006
  vertex -12 26.1194 8.39748001
  vertex -12 25.6970005 8.6675396
  endloop
 endfacet

 facet normal -0.711070061 0.392536044 0.583348036
  outer loop
  vertex -11.5 26.1040993 9.01725006
  vertex -4.5 36.0500984 10.8571997
  vertex -12 26.1194 8.39748001
  endloop
 endfacet

 facet normal -0.692813098 0.280089021 0.664500058
  outer loop
  vertex -11.5 26.1040993 9.01725006
  vertex -12 25.6970005 8.6675396
  vertex -11.5 25.5 9.27188015
  endloop
 endfacet

 facet normal -0.627961159 0.302278072 0.717142105
  outer loop
  vertex -11.5 26.1040993 9.01725006
  vertex -11.5 25.5 9.27188015
  vertex -4.5 34.8496017 11.4604998
  endloop
 endfacet

 facet normal -0.632980466 0.308247238 0.710154533
  outer loop
  vertex -4.5 35.4668007 11.1926003
  vertex -11.5 26.1040993 9.01725006
  vertex -4.5 34.8496017 11.4604998
  endloop
 endfacet

 facet normal 0.632980466 0.308247238 0.710154533
  outer loop
  vertex 4.5 34.8496017 11.4604998
  vertex 11.5 26.1040993 9.01725006
  vertex 4.5 35.4668007 11.1926003
  endloop
 endfacet

 facet normal 0.683408082 0.363906026 0.632871091
  outer loop
  vertex 11.5 26.1040993 9.01725006
  vertex 4.5 36.0500984 10.8571997
  vertex 4.5 35.4668007 11.1926003
  endloop
 endfacet

 facet normal 0.754502833 0.44547388 0.481952876
  outer loop
  vertex 4.5 36.5922012 10.4587002
  vertex 12 26.1194 8.39748001
  vertex 4.5 37.0862999 10.0019999
  endloop
 endfacet

 facet normal 0.723643064 0.408783048 0.55609107
  outer loop
  vertex 12 26.1194 8.39748001
  vertex 4.5 36.5922012 10.4587002
  vertex 4.5 36.0500984 10.8571997
  endloop
 endfacet

 facet normal -0.91365397 0.175130993 -0.366831958
  outer loop
  vertex -5 33.8988991 -8.46481991
  vertex -5 33.3741989 -8.71531963
  vertex -12 25.6847992 5.0482502
  endloop
 endfacet

 facet normal -0.91440028 0.215629086 -0.342602134
  outer loop
  vertex -5 33.8988991 -8.46481991
  vertex -12 25.6847992 5.0482502
  vertex -5 34.3909988 -8.15509987
  endloop
 endfacet

 facet normal -0.895484209 0.191761062 -0.401666135
  outer loop
  vertex -5 33.8988991 -8.46481991
  vertex -4.5 34.2263985 -9.42317963
  vertex -5 33.3741989 -8.71531963
  endloop
 endfacet

 facet normal -0.909979701 0.301313907 -0.284862906
  outer loop
  vertex -5 35.2512016 -7.37548018
  vertex -12 26.1089993 5.31545019
  vertex -12 26.4533997 5.67973995
  endloop
 endfacet

 facet normal -0.910517693 0.295006901 -0.289703906
  outer loop
  vertex -5 35.2512016 -7.37548018
  vertex -5 34.8437996 -7.79033995
  vertex -12 26.1089993 5.31545019
  endloop
 endfacet

 facet normal -0.905690134 0.334911019 -0.259923041
  outer loop
  vertex -5 35.2512016 -7.37548018
  vertex -12 26.4533997 5.67973995
  vertex -5 35.6077003 -6.91613007
  endloop
 endfacet

 facet normal -0.895904064 0.350954026 -0.272373021
  outer loop
  vertex -4.5 36.2019997 -7.79500008
  vertex -5 35.2512016 -7.37548018
  vertex -5 35.6077003 -6.91613007
  endloop
 endfacet

 facet normal -0.892910957 0.368338972 -0.258913964
  outer loop
  vertex -4.5 36.5727005 -7.2676301
  vertex -4.5 36.2019997 -7.79500008
  vertex -5 35.6077003 -6.91613007
  endloop
 endfacet

 facet normal 0.893044174 0.393725067 -0.217836022
  outer loop
  vertex 4.5 36.5727005 -7.2676301
  vertex 4.5 36.8848 -6.70352983
  vertex 5 35.9084015 -6.41849995
  endloop
 endfacet

 facet normal 0.886379182 0.426820099 -0.179322049
  outer loop
  vertex 12 26.6963997 6.11824989
  vertex 4.5 36.8848 -6.70352983
  vertex 4.5 37.1344986 -6.1092
  endloop
 endfacet

 facet normal 0.89398402 0.397303998 -0.20722501
  outer loop
  vertex 5 35.9084015 -6.41849995
  vertex 4.5 36.8848 -6.70352983
  vertex 12 26.6963997 6.11824989
  endloop
 endfacet

 facet normal 0.895484209 0.191761062 -0.401666135
  outer loop
  vertex 4.5 34.2263985 -9.42317963
  vertex 5 33.8988991 -8.46481991
  vertex 5 33.3741989 -8.71531963
  endloop
 endfacet

 facet normal 0.893364131 0.18344301 -0.410182059
  outer loop
  vertex 4.5 33.6379013 -9.6863699
  vertex 4.5 34.2263985 -9.42317963
  vertex 5 33.3741989 -8.71531963
  endloop
 endfacet

 facet normal 0.89313215 0.226648062 -0.388517052
  outer loop
  vertex 5 33.8988991 -8.46481991
  vertex 4.5 34.2263985 -9.42317963
  vertex 4.5 34.7831993 -9.09836006
  endloop
 endfacet

 facet normal 0.892859161 0.338455081 -0.297070056
  outer loop
  vertex 4.5 36.2019997 -7.79500008
  vertex 5 35.2512016 -7.37548018
  vertex 4.5 35.7766991 -8.2795496
  endloop
 endfacet

 facet normal 0.892910957 0.368338972 -0.258913964
  outer loop
  vertex 4.5 36.2019997 -7.79500008
  vertex 4.5 36.5727005 -7.2676301
  vertex 5 35.6077003 -6.91613007
  endloop
 endfacet

 facet normal 0.895904064 0.350954026 -0.272373021
  outer loop
  vertex 5 35.2512016 -7.37548018
  vertex 4.5 36.2019997 -7.79500008
  vertex 5 35.6077003 -6.91613007
  endloop
 endfacet

 facet normal 0.895853758 0.27875495 -0.346036911
  outer loop
  vertex 5 34.8437996 -7.79033995
  vertex 5 34.3909988 -8.15509987
  vertex 4.5 35.3019981 -8.71568012
  endloop
 endfacet

 facet normal 0.913193882 0.255653977 -0.317360938
  outer loop
  vertex 5 34.8437996 -7.79033995
  vertex 12 26.1089993 5.31545019
  vertex 5 34.3909988 -8.15509987
  endloop
 endfacet

 facet normal 0.910517693 0.295006901 -0.289703906
  outer loop
  vertex 5 34.8437996 -7.79033995
  vertex 5 35.2512016 -7.37548018
  vertex 12 26.1089993 5.31545019
  endloop
 endfacet

 facet normal 0.895912588 0.316953838 -0.311256886
  outer loop
  vertex 5 34.8437996 -7.79033995
  vertex 4.5 35.7766991 -8.2795496
  vertex 5 35.2512016 -7.37548018
  endloop
 endfacet

 facet normal 0.892874122 0.304658026 -0.331601024
  outer loop
  vertex 5 34.8437996 -7.79033995
  vertex 4.5 35.3019981 -8.71568012
  vertex 4.5 35.7766991 -8.2795496
  endloop
 endfacet

 facet normal 0.958954275 -0.232832059 0.161851063
  outer loop
  vertex 5.5 -6.34938002 3.99190998
  vertex 12 23.0900002 7.83017015
  vertex 5.5 -5.95396996 4.56072998
  endloop
 endfacet

 facet normal 0.964470208 -0.229915008 0.130140021
  outer loop
  vertex 5.5 -6.34938002 3.99190998
  vertex 5.5 -6.69062996 3.38902998
  vertex 12 23.0900002 7.83017015
  endloop
 endfacet

 facet normal 0.97021544 -0.224934116 0.0899255425
  outer loop
  vertex 5.5 -6.97478008 2.75724006
  vertex 12 22.9039001 7.3646698
  vertex 12 23.0900002 7.83017015
  endloop
 endfacet

 facet normal 0.968636513 -0.226616889 0.101921946
  outer loop
  vertex 5.5 -6.97478008 2.75724006
  vertex 12 23.0900002 7.83017015
  vertex 5.5 -6.69062996 3.38902998
  endloop
 endfacet

 facet normal 0.971763611 -0.223203897 0.0765208676
  outer loop
  vertex 5.5 -6.97478008 2.75724006
  vertex 5.5 -7.19944 2.1019299
  vertex 12 22.9039001 7.3646698
  endloop
 endfacet

 facet normal -0.951379359 -0.235614091 0.198402077
  outer loop
  vertex -5.5 -5.50776005 5.09063005
  vertex -12 23.3859997 8.23476982
  vertex -5.5 -5.95396996 4.56072998
  endloop
 endfacet

 facet normal -0.940865695 -0.237904906 0.24119091
  outer loop
  vertex -5.5 -5.01456022 5.57710981
  vertex -12 23.3859997 8.23476982
  vertex -5.5 -5.50776005 5.09063005
  endloop
 endfacet

 facet normal -0.869031549 -0.237781852 0.433870733
  outer loop
  vertex -5.5 -3.90438986 6.40357018
  vertex -5.5 -3.29689002 6.7365098
  vertex -12 23.7733994 8.55302048
  endloop
 endfacet

 facet normal -0.833305657 -0.233706892 0.500981748
  outer loop
  vertex -12 23.7733994 8.55302048
  vertex -5.5 -3.29689002 6.7365098
  vertex -12 24.2276993 8.7649498
  endloop
 endfacet

 facet normal -0.926255703 -0.239242911 0.291226923
  outer loop
  vertex -12 23.7733994 8.55302048
  vertex -12 23.3859997 8.23476982
  vertex -5.5 -5.01456022 5.57710981
  endloop
 endfacet

 facet normal -0.978136301 -0.182372063 -0.0999490321
  outer loop
  vertex -5.5 -6.7365098 -3.29689002
  vertex -12 23.0834999 5.90317011
  vertex -5.5 -6.40357018 -3.90438986
  endloop
 endfacet

 facet normal -0.977216959 -0.17591998 -0.118739992
  outer loop
  vertex -5.5 -6.01600981 -4.47858
  vertex -5.5 -6.40357018 -3.90438986
  vertex -12 23.0834999 5.90317011
  endloop
 endfacet

 facet normal -0.974088073 -0.161018997 -0.15882501
  outer loop
  vertex -5.5 -5.57710981 -5.01456022
  vertex -12 23.3768005 5.49659014
  vertex -5.5 -5.09063005 -5.50776005
  endloop
 endfacet

 facet normal -0.971731722 -0.152067959 -0.180589944
  outer loop
  vertex -5.5 -4.56072998 -5.95396996
  vertex -5.5 -5.09063005 -5.50776005
  vertex -12 23.3768005 5.49659014
  endloop
 endfacet

 facet normal -0.964390934 -0.130282 -0.230166972
  outer loop
  vertex -5.5 -3.99190998 -6.34938002
  vertex -12 23.7619991 5.17573023
  vertex -5.5 -3.38902998 -6.69062996
  endloop
 endfacet

 facet normal -0.968556881 -0.14200598 -0.204283968
  outer loop
  vertex -5.5 -3.99190998 -6.34938002
  vertex -5.5 -4.56072998 -5.95396996
  vertex -12 23.7619991 5.17573023
  endloop
 endfacet

 facet normal -0.974125206 -0.219646037 0.0532533079
  outer loop
  vertex -5.5 -7.19944 2.1019299
  vertex -12 22.9039001 7.3646698
  vertex -5.5 -7.36266994 1.42867994
  endloop
 endfacet

 facet normal -0.975928426 -0.215788111 0.0316111147
  outer loop
  vertex -5.5 -7.36266994 1.42867994
  vertex -12 22.9039001 7.3646698
  vertex -5.5 -7.46307993 0.743246019
  endloop
 endfacet

 facet normal -0.857859492 0.505320728 -0.0934235379
  outer loop
  vertex -4.5 37.3190002 -5.49150991
  vertex -12 26.8227005 6.60340977
  vertex -4.5 37.4361992 -4.8575902
  endloop
 endfacet

 facet normal -0.869534016 0.477943033 -0.124422997
  outer loop
  vertex -4.5 37.3190002 -5.49150991
  vertex -12 26.6963997 6.11824989
  vertex -12 26.8227005 6.60340977
  endloop
 endfacet

 facet normal -0.87417233 0.465302169 -0.138984054
  outer loop
  vertex -4.5 37.1344986 -6.1092
  vertex -12 26.6963997 6.11824989
  vertex -4.5 37.3190002 -5.49150991
  endloop
 endfacet

 facet normal -0.83650291 0.531213939 0.134441987
  outer loop
  vertex -12 26.7014008 7.5907402
  vertex -4.5 38.644001 7.06780005
  vertex -12 26.8243999 7.10474014
  endloop
 endfacet

 facet normal -0.894040465 0.0914431512 -0.438554227
  outer loop
  vertex -4.5 33.024601 -9.88490963
  vertex -4.5 32.3935013 -10.0165005
  vertex -5 32.2556 -9.02595043
  endloop
 endfacet

 facet normal -0.894774199 0.0942653194 -0.436455101
  outer loop
  vertex -5 32.2556 -9.02595043
  vertex -5 32.8238983 -8.90320969
  vertex -4.5 33.024601 -9.88490963
  endloop
 endfacet

 facet normal -0.895853758 0.27875495 -0.346036911
  outer loop
  vertex -4.5 35.3019981 -8.71568012
  vertex -5 34.3909988 -8.15509987
  vertex -5 34.8437996 -7.79033995
  endloop
 endfacet

 facet normal -0.896121919 0.388188988 -0.215115964
  outer loop
  vertex -5 35.9084015 -6.41849995
  vertex -12 26.4533997 5.67973995
  vertex -12 26.6963997 6.11824989
  endloop
 endfacet

 facet normal -0.893044174 0.393725067 -0.217836022
  outer loop
  vertex -5 35.9084015 -6.41849995
  vertex -4.5 36.8848 -6.70352983
  vertex -4.5 36.5727005 -7.2676301
  endloop
 endfacet

 facet normal -0.89398402 0.397303998 -0.20722501
  outer loop
  vertex -5 35.9084015 -6.41849995
  vertex -12 26.6963997 6.11824989
  vertex -4.5 36.8848 -6.70352983
  endloop
 endfacet

 facet normal -0.898759961 0.375251979 -0.226751983
  outer loop
  vertex -5 35.6077003 -6.91613007
  vertex -12 26.4533997 5.67973995
  vertex -5 35.9084015 -6.41849995
  endloop
 endfacet

 facet normal -0.895793796 0.380411923 -0.229869947
  outer loop
  vertex -5 35.9084015 -6.41849995
  vertex -4.5 36.5727005 -7.2676301
  vertex -5 35.6077003 -6.91613007
  endloop
 endfacet

 facet normal -0.903504014 -0.239770979 0.355233014
  outer loop
  vertex -5.5 -3.90438986 6.40357018
  vertex -12 23.7733994 8.55302048
  vertex -5.5 -4.47858 6.01600981
  endloop
 endfacet

 facet normal -0.925942123 -0.239273027 0.292198032
  outer loop
  vertex -5.5 -4.47858 6.01600981
  vertex -12 23.7733994 8.55302048
  vertex -5.5 -5.01456022 5.57710981
  endloop
 endfacet

 facet normal 0.960260212 -0.119690023 -0.252140045
  outer loop
  vertex 5.5 -3.38902998 -6.69062996
  vertex 12 24.2148991 4.96074009
  vertex 12 23.7619991 5.17573023
  endloop
 endfacet

 facet normal 0.958837509 -0.116472065 -0.258969158
  outer loop
  vertex 5.5 -3.38902998 -6.69062996
  vertex 5.5 -2.75724006 -6.97478008
  vertex 12 24.2148991 4.96074009
  endloop
 endfacet

 facet normal 0.933961987 -0.0681457892 -0.350814968
  outer loop
  vertex 5.5 -1.42867994 -7.36266994
  vertex 12 24.7070007 4.86514997
  vertex 12 24.2148991 4.96074009
  endloop
 endfacet

 facet normal -0.841427624 0.534173846 0.0815954655
  outer loop
  vertex -4.5 38.7456017 6.40265989
  vertex -12 26.8243999 7.10474014
  vertex -4.5 38.644001 7.06780005
  endloop
 endfacet

 facet normal -0.895169199 0.144022033 -0.421817064
  outer loop
  vertex -4.5 33.6379013 -9.6863699
  vertex -5 32.8238983 -8.90320969
  vertex -5 33.3741989 -8.71531963
  endloop
 endfacet

 facet normal -0.893670797 0.138200983 -0.426910937
  outer loop
  vertex -4.5 33.6379013 -9.6863699
  vertex -4.5 33.024601 -9.88490963
  vertex -5 32.8238983 -8.90320969
  endloop
 endfacet

 facet normal -0.893364131 0.18344301 -0.410182059
  outer loop
  vertex -5 33.3741989 -8.71531963
  vertex -4.5 34.2263985 -9.42317963
  vertex -4.5 33.6379013 -9.6863699
  endloop
 endfacet

 facet normal -0.892965078 0.267198026 -0.36224103
  outer loop
  vertex -4.5 35.3019981 -8.71568012
  vertex -4.5 34.7831993 -9.09836006
  vertex -5 34.3909988 -8.15509987
  endloop
 endfacet

 facet normal -0.895707309 0.236846104 -0.376314163
  outer loop
  vertex -4.5 34.7831993 -9.09836006
  vertex -5 33.8988991 -8.46481991
  vertex -5 34.3909988 -8.15509987
  endloop
 endfacet

 facet normal -0.89313215 0.226648062 -0.388517052
  outer loop
  vertex -5 33.8988991 -8.46481991
  vertex -4.5 34.7831993 -9.09836006
  vertex -4.5 34.2263985 -9.42317963
  endloop
 endfacet

 facet normal -0.895912588 0.316953838 -0.311256886
  outer loop
  vertex -5 34.8437996 -7.79033995
  vertex -5 35.2512016 -7.37548018
  vertex -4.5 35.7766991 -8.2795496
  endloop
 endfacet

 facet normal -0.892874122 0.304658026 -0.331601024
  outer loop
  vertex -4.5 35.7766991 -8.2795496
  vertex -4.5 35.3019981 -8.71568012
  vertex -5 34.8437996 -7.79033995
  endloop
 endfacet

 facet normal -0.892859161 0.338455081 -0.297070056
  outer loop
  vertex -4.5 35.7766991 -8.2795496
  vertex -5 35.2512016 -7.37548018
  vertex -4.5 36.2019997 -7.79500008
  endloop
 endfacet

 facet normal 0.968557179 -0.14200601 -0.204283029
  outer loop
  vertex 12 23.7619991 5.17573023
  vertex 5.5 -4.56072998 -5.95396996
  vertex 5.5 -3.99190998 -6.34938002
  endloop
 endfacet

 facet normal 0.964390934 -0.130282 -0.230166972
  outer loop
  vertex 5.5 -3.99190998 -6.34938002
  vertex 5.5 -3.38902998 -6.69062996
  vertex 12 23.7619991 5.17573023
  endloop
 endfacet

 facet normal 0.676115036 -0.0390762053 -0.735759079
  outer loop
  vertex 5.5 -0.743246019 -7.46307993
  vertex 4.5 31.1072998 -10.0735998
  vertex 5.5 -0.0514696017 -7.49981976
  endloop
 endfacet

 facet normal 0.90299046 -0.0227871872 -0.42905575
  outer loop
  vertex 5.5 -0.0514696017 -7.49981976
  vertex 12 24.7070007 4.86514997
  vertex 5.5 -0.743246019 -7.46307993
  endloop
 endfacet

 facet normal 0.925530672 -0.0548862778 -0.374673843
  outer loop
  vertex 12 24.7070007 4.86514997
  vertex 5.5 -1.42867994 -7.36266994
  vertex 5.5 -0.743246019 -7.46307993
  endloop
 endfacet

 facet normal 0.95120436 -0.100067042 -0.291885078
  outer loop
  vertex 12 24.2148991 4.96074009
  vertex 5.5 -2.75724006 -6.97478008
  vertex 5.5 -2.1019299 -7.19944
  endloop
 endfacet

 facet normal 0.940666258 -0.0799551159 -0.329779059
  outer loop
  vertex 5.5 -2.1019299 -7.19944
  vertex 5.5 -1.42867994 -7.36266994
  vertex 12 24.2148991 4.96074009
  endloop
 endfacet

 facet normal -0.847045124 0.531518042 -0.00180178019
  outer loop
  vertex -12 26.8227005 6.60340977
  vertex -12 26.8243999 7.10474014
  vertex -4.5 38.7719994 5.73032999
  endloop
 endfacet

 facet normal -0.845680952 0.533277929 0.0209381003
  outer loop
  vertex -4.5 38.7719994 5.73032999
  vertex -12 26.8243999 7.10474014
  vertex -4.5 38.7456017 6.40265989
  endloop
 endfacet

 facet normal -0.847623467 0.529183686 -0.0387183726
  outer loop
  vertex -4.5 38.7229004 5.05926991
  vertex -12 26.8227005 6.60340977
  vertex -4.5 38.7719994 5.73032999
  endloop
 endfacet

 facet normal 0 -0.209797949 0.977744758
  outer loop
  vertex -4.5 23.6896992 12.7496004
  vertex 5.5 -1.32749999 7.38157988
  vertex 4.5 23.6896992 12.7496004
  endloop
 endfacet

 facet normal 0 -0.209797949 0.977744758
  outer loop
  vertex -5.5 -1.32749999 7.38157988
  vertex 5.5 -1.32749999 7.38157988
  vertex -4.5 23.6896992 12.7496004
  endloop
 endfacet

 facet normal 0 -0.00930849649 -0.999956608
  outer loop
  vertex 4.5 31.1072998 -10.0735998
  vertex -4.5 31.1072998 -10.0735998
  vertex -4.5 31.7518997 -10.0796003
  endloop
 endfacet

 facet normal 0 -0.00930849649 -0.999956608
  outer loop
  vertex 4.5 31.1072998 -10.0735998
  vertex -4.5 31.7518997 -10.0796003
  vertex 4.5 31.7518997 -10.0796003
  endloop
 endfacet

 facet normal 0 -0.138657063 0.990340471
  outer loop
  vertex 4.5 24.3267994 12.8388004
  vertex -4.5 23.6896992 12.7496004
  vertex 4.5 23.6896992 12.7496004
  endloop
 endfacet

 facet normal 0 -0.138657063 0.990340471
  outer loop
  vertex 4.5 24.3267994 12.8388004
  vertex -4.5 24.3267994 12.8388004
  vertex -4.5 23.6896992 12.7496004
  endloop
 endfacet

 facet normal 0 0.128674984 0.991686821
  outer loop
  vertex -4.5 25.6114006 12.8108997
  vertex 4.5 33.544899 11.7814999
  vertex -4.5 33.544899 11.7814999
  endloop
 endfacet

 facet normal 0 0.128674984 0.991686821
  outer loop
  vertex 4.5 25.6114006 12.8108997
  vertex 4.5 33.544899 11.7814999
  vertex -4.5 25.6114006 12.8108997
  endloop
 endfacet

 facet normal 0 -0.99922657 -0.0393218845
  outer loop
  vertex 5.5 -7.47257996 -0.640745997
  vertex -5.5 -7.49981976 0.0514696017
  vertex -5.5 -7.47257996 -0.640745997
  endloop
 endfacet

 facet normal 0 -0.99922657 -0.0393218845
  outer loop
  vertex -5.5 -7.49981976 0.0514696017
  vertex 5.5 -7.47257996 -0.640745997
  vertex 5.5 -7.49981976 0.0514696017
  endloop
 endfacet

 facet normal 0 0.965462267 0.260543048
  outer loop
  vertex 4.5 38.644001 7.06780005
  vertex -4.5 38.644001 7.06780005
  vertex -4.5 38.4687004 7.71739006
  endloop
 endfacet

 facet normal 0 0.965462267 0.260543048
  outer loop
  vertex 4.5 38.644001 7.06780005
  vertex -4.5 38.4687004 7.71739006
  vertex 4.5 38.4687004 7.71739006
  endloop
 endfacet

 facet normal 0 0.0752341896 0.997165918
  outer loop
  vertex 4.5 25.6114006 12.8108997
  vertex -4.5 25.6114006 12.8108997
  vertex 4.5 24.9699001 12.8592997
  endloop
 endfacet

 facet normal 0 0.0752341896 0.997165918
  outer loop
  vertex 4.5 24.9699001 12.8592997
  vertex -4.5 25.6114006 12.8108997
  vertex -4.5 24.9699001 12.8592997
  endloop
 endfacet

 facet normal 0 -0.0318594165 0.999492407
  outer loop
  vertex 4.5 24.3267994 12.8388004
  vertex 4.5 24.9699001 12.8592997
  vertex -4.5 24.3267994 12.8388004
  endloop
 endfacet

 facet normal 0 -0.0318594165 0.999492407
  outer loop
  vertex -4.5 24.9699001 12.8592997
  vertex -4.5 24.3267994 12.8388004
  vertex 4.5 24.9699001 12.8592997
  endloop
 endfacet

 facet normal 0 0.930181921 0.367098957
  outer loop
  vertex 4.5 38.2216988 8.34325981
  vertex 4.5 38.4687004 7.71739006
  vertex -4.5 38.4687004 7.71739006
  endloop
 endfacet

 facet normal 0 0.930181921 0.367098957
  outer loop
  vertex -4.5 38.4687004 7.71739006
  vertex -4.5 38.2216988 8.34325981
  vertex 4.5 38.2216988 8.34325981
  endloop
 endfacet

 facet normal 0 0.883250177 0.468902081
  outer loop
  vertex 4.5 38.2216988 8.34325981
  vertex -4.5 37.9062004 8.93754959
  vertex 4.5 37.9062004 8.93754959
  endloop
 endfacet

 facet normal 0 0.883250177 0.468902081
  outer loop
  vertex 4.5 38.2216988 8.34325981
  vertex -4.5 38.2216988 8.34325981
  vertex -4.5 37.9062004 8.93754959
  endloop
 endfacet

 facet normal 0 0.0978751555 -0.995198607
  outer loop
  vertex 4.5 32.3935013 -10.0165005
  vertex 4.5 31.7518997 -10.0796003
  vertex -4.5 31.7518997 -10.0796003
  endloop
 endfacet

 facet normal 0 0.0978751555 -0.995198607
  outer loop
  vertex -4.5 32.3935013 -10.0165005
  vertex 4.5 32.3935013 -10.0165005
  vertex -4.5 31.7518997 -10.0796003
  endloop
 endfacet

 facet normal 0 -0.480603904 0.876937807
  outer loop
  vertex -5.5 -3.29689002 6.7365098
  vertex 5.5 -3.90438986 6.40357018
  vertex 5.5 -3.29689002 6.7365098
  endloop
 endfacet

 facet normal 0 -0.480603904 0.876937807
  outer loop
  vertex -5.5 -3.29689002 6.7365098
  vertex -5.5 -3.90438986 6.40357018
  vertex 5.5 -3.90438986 6.40357018
  endloop
 endfacet

 facet normal 0 -0.222259864 0.974987388
  outer loop
  vertex -5.5 -2.00291991 7.22761011
  vertex 5.5 -1.32749999 7.38157988
  vertex -5.5 -1.32749999 7.38157988
  endloop
 endfacet

 facet normal 0 -0.222259864 0.974987388
  outer loop
  vertex 5.5 -2.00291991 7.22761011
  vertex 5.5 -1.32749999 7.38157988
  vertex -5.5 -2.00291991 7.22761011
  endloop
 endfacet

 facet normal 0 0.292906046 0.956141174
  outer loop
  vertex -4.5 34.2061996 11.6576004
  vertex 4.5 34.2061996 11.6576004
  vertex -4.5 34.8496017 11.4604998
  endloop
 endfacet

 facet normal 0 0.292906046 0.956141174
  outer loop
  vertex 4.5 34.2061996 11.6576004
  vertex 4.5 34.8496017 11.4604998
  vertex -4.5 34.8496017 11.4604998
  endloop
 endfacet

 facet normal 0 0.184152931 0.98289758
  outer loop
  vertex -4.5 33.544899 11.7814999
  vertex 4.5 33.544899 11.7814999
  vertex 4.5 34.2061996 11.6576004
  endloop
 endfacet

 facet normal 0 0.184152931 0.98289758
  outer loop
  vertex 4.5 34.2061996 11.6576004
  vertex -4.5 34.2061996 11.6576004
  vertex -4.5 33.544899 11.7814999
  endloop
 endfacet

 facet normal 0 -0.991334915 -0.131358996
  outer loop
  vertex -5.5 -7.38157988 -1.32749999
  vertex 5.5 -7.47257996 -0.640745997
  vertex -5.5 -7.47257996 -0.640745997
  endloop
 endfacet

 facet normal 0 -0.991334915 -0.131358996
  outer loop
  vertex 5.5 -7.47257996 -0.640745997
  vertex -5.5 -7.38157988 -1.32749999
  vertex 5.5 -7.38157988 -1.32749999
  endloop
 endfacet

 facet normal 0 -0.974987388 -0.222259864
  outer loop
  vertex -5.5 -7.38157988 -1.32749999
  vertex 5.5 -7.22761011 -2.00291991
  vertex 5.5 -7.38157988 -1.32749999
  endloop
 endfacet

 facet normal 0 -0.974987388 -0.222259864
  outer loop
  vertex -5.5 -7.38157988 -1.32749999
  vertex -5.5 -7.22761011 -2.00291991
  vertex 5.5 -7.22761011 -2.00291991
  endloop
 endfacet

 facet normal 0 -0.950317621 -0.31128186
  outer loop
  vertex -5.5 -7.01197004 -2.66125011
  vertex 5.5 -7.22761011 -2.00291991
  vertex -5.5 -7.22761011 -2.00291991
  endloop
 endfacet

 facet normal 0 -0.950317621 -0.31128186
  outer loop
  vertex 5.5 -7.01197004 -2.66125011
  vertex 5.5 -7.22761011 -2.00291991
  vertex -5.5 -7.01197004 -2.66125011
  endloop
 endfacet

 facet normal 0 -0.998592615 0.0530352779
  outer loop
  vertex 5.5 -7.46307993 0.743246019
  vertex -5.5 -7.49981976 0.0514696017
  vertex 5.5 -7.49981976 0.0514696017
  endloop
 endfacet

 facet normal 0 -0.998592615 0.0530352779
  outer loop
  vertex 5.5 -7.46307993 0.743246019
  vertex -5.5 -7.46307993 0.743246019
  vertex -5.5 -7.49981976 0.0514696017
  endloop
 endfacet

 facet normal 0 -0.31128186 0.950317621
  outer loop
  vertex 5.5 -2.00291991 7.22761011
  vertex -5.5 -2.00291991 7.22761011
  vertex 5.5 -2.66125011 7.01197004
  endloop
 endfacet

 facet normal 0 -0.31128186 0.950317621
  outer loop
  vertex 5.5 -2.66125011 7.01197004
  vertex -5.5 -2.00291991 7.22761011
  vertex -5.5 -2.66125011 7.01197004
  endloop
 endfacet

 facet normal 0 -0.397627056 0.917547107
  outer loop
  vertex 5.5 -2.66125011 7.01197004
  vertex -5.5 -3.29689002 6.7365098
  vertex 5.5 -3.29689002 6.7365098
  endloop
 endfacet

 facet normal 0 -0.397627056 0.917547107
  outer loop
  vertex -5.5 -3.29689002 6.7365098
  vertex 5.5 -2.66125011 7.01197004
  vertex -5.5 -2.66125011 7.01197004
  endloop
 endfacet

 facet normal 0 -0.917547107 -0.397627056
  outer loop
  vertex -5.5 -7.01197004 -2.66125011
  vertex 5.5 -6.7365098 -3.29689002
  vertex 5.5 -7.01197004 -2.66125011
  endloop
 endfacet

 facet normal 0 -0.917547107 -0.397627056
  outer loop
  vertex 5.5 -6.7365098 -3.29689002
  vertex -5.5 -7.01197004 -2.66125011
  vertex -5.5 -6.7365098 -3.29689002
  endloop
 endfacet

 facet normal 0 -0.773695171 -0.633558095
  outer loop
  vertex 5.5 -6.01600981 -4.47858
  vertex -5.5 -6.01600981 -4.47858
  vertex -5.5 -5.57710981 -5.01456022
  endloop
 endfacet

 facet normal 0 -0.773695171 -0.633558095
  outer loop
  vertex 5.5 -6.01600981 -4.47858
  vertex -5.5 -5.57710981 -5.01456022
  vertex 5.5 -5.57710981 -5.01456022
  endloop
 endfacet

 facet normal 0 0.991687477 -0.128670067
  outer loop
  vertex -4.5 37.4361992 -4.8575902
  vertex -4.5 38.7229004 5.05926991
  vertex 4.5 38.7229004 5.05926991
  endloop
 endfacet

 facet normal 0 0.991687477 -0.128670067
  outer loop
  vertex -4.5 37.4361992 -4.8575902
  vertex 4.5 38.7229004 5.05926991
  vertex 4.5 37.4361992 -4.8575902
  endloop
 endfacet

 facet normal 1 0 0
  outer loop
  vertex 12 26.8227005 6.60340977
  vertex 12 26.8243999 7.10474014
  vertex 12 26.7014008 7.5907402
  endloop
 endfacet

 facet normal 1 0 0
  outer loop
  vertex 12 26.8227005 6.60340977
  vertex 12 26.1194 8.39748001
  vertex 12 25.6970005 8.6675396
  endloop
 endfacet

 facet normal 1 0 0
  outer loop
  vertex 12 24.2276993 8.7649498
  vertex 12 23.7733994 8.55302048
  vertex 12 26.8227005 6.60340977
  endloop
 endfacet

 facet normal 1 0 0
  outer loop
  vertex 12 26.8227005 6.60340977
  vertex 12 25.6847992 5.0482502
  vertex 12 26.1089993 5.31545019
  endloop
 endfacet

 facet normal 1 0 0
  outer loop
  vertex 12 24.7205009 8.85723019
  vertex 12 24.2276993 8.7649498
  vertex 12 26.8227005 6.60340977
  endloop
 endfacet

 facet normal 1 0 0
  outer loop
  vertex 12 23.7619991 5.17573023
  vertex 12 26.8227005 6.60340977
  vertex 12 23.3768005 5.49659014
  endloop
 endfacet

 facet normal 1 0 0
  outer loop
  vertex 12 26.8227005 6.60340977
  vertex 12 22.9039001 7.3646698
  vertex 12 22.8393002 6.86750984
  endloop
 endfacet

 facet normal 1 0 0
  outer loop
  vertex 12 26.8227005 6.60340977
  vertex 12 23.0834999 5.90317011
  vertex 12 23.3768005 5.49659014
  endloop
 endfacet

 facet normal 1 0 0
  outer loop
  vertex 12 26.8227005 6.60340977
  vertex 12 23.0900002 7.83017015
  vertex 12 22.9039001 7.3646698
  endloop
 endfacet

 facet normal 1 0 0
  outer loop
  vertex 12 26.8227005 6.60340977
  vertex 12 26.7014008 7.5907402
  vertex 12 26.4612999 8.03087044
  endloop
 endfacet

 facet normal 1 0 0
  outer loop
  vertex 12 26.4533997 5.67973995
  vertex 12 26.6963997 6.11824989
  vertex 12 26.8227005 6.60340977
  endloop
 endfacet

 facet normal 1 0 0
  outer loop
  vertex 12 26.8227005 6.60340977
  vertex 12 26.1089993 5.31545019
  vertex 12 26.4533997 5.67973995
  endloop
 endfacet

 facet normal 1 0 0
  outer loop
  vertex 12 26.8227005 6.60340977
  vertex 12 22.8393002 6.86750984
  vertex 12 22.9004993 6.36991978
  endloop
 endfacet

 facet normal 1 0 0
  outer loop
  vertex 12 23.3859997 8.23476982
  vertex 12 23.0900002 7.83017015
  vertex 12 26.8227005 6.60340977
  endloop
 endfacet

 facet normal 1 0 0
  outer loop
  vertex 12 26.8227005 6.60340977
  vertex 12 23.7619991 5.17573023
  vertex 12 24.2148991 4.96074009
  endloop
 endfacet

 facet normal 1 0 0
  outer loop
  vertex 12 22.9004993 6.36991978
  vertex 12 23.0834999 5.90317011
  vertex 12 26.8227005 6.60340977
  endloop
 endfacet

 facet normal 1 0 0
  outer loop
  vertex 12 26.8227005 6.60340977
  vertex 12 24.7070007 4.86514997
  vertex 12 25.2075005 4.8949399
  endloop
 endfacet

 facet normal 1 0 0
  outer loop
  vertex 12 26.8227005 6.60340977
  vertex 12 25.2075005 4.8949399
  vertex 12 25.6847992 5.0482502
  endloop
 endfacet

 facet normal 1 0 0
  outer loop
  vertex 12 25.6970005 8.6675396
  vertex 12 25.2206993 8.82406044
  vertex 12 26.8227005 6.60340977
  endloop
 endfacet

 facet normal 1 0 0
  outer loop
  vertex 12 24.7070007 4.86514997
  vertex 12 26.8227005 6.60340977
  vertex 12 24.2148991 4.96074009
  endloop
 endfacet

 facet normal 1 0 0
  outer loop
  vertex 12 26.4612999 8.03087044
  vertex 12 26.1194 8.39748001
  vertex 12 26.8227005 6.60340977
  endloop
 endfacet

 facet normal 1 0 0
  outer loop
  vertex 12 26.8227005 6.60340977
  vertex 12 25.2206993 8.82406044
  vertex 12 24.7205009 8.85723019
  endloop
 endfacet

 facet normal 1 0 0
  outer loop
  vertex 12 26.8227005 6.60340977
  vertex 12 23.7733994 8.55302048
  vertex 12 23.3859997 8.23476982
  endloop
 endfacet

 facet normal 0 0.756815135 0.653629065
  outer loop
  vertex 4.5 37.5261002 9.4927702
  vertex -4.5 37.5261002 9.4927702
  vertex -4.5 37.0862999 10.0019999
  endloop
 endfacet

 facet normal 0 0.756815135 0.653629065
  outer loop
  vertex 4.5 37.5261002 9.4927702
  vertex -4.5 37.0862999 10.0019999
  vertex 4.5 37.0862999 10.0019999
  endloop
 endfacet

 facet normal 0 0.825160027 0.564899087
  outer loop
  vertex 4.5 37.5261002 9.4927702
  vertex 4.5 37.9062004 8.93754959
  vertex -4.5 37.9062004 8.93754959
  endloop
 endfacet

 facet normal 0 0.825160027 0.564899087
  outer loop
  vertex -4.5 37.9062004 8.93754959
  vertex -4.5 37.5261002 9.4927702
  vertex 4.5 37.5261002 9.4927702
  endloop
 endfacet

 facet normal 0 0.39816618 0.917313278
  outer loop
  vertex 4.5 35.4668007 11.1926003
  vertex -4.5 34.8496017 11.4604998
  vertex 4.5 34.8496017 11.4604998
  endloop
 endfacet

 facet normal 0 0.39816618 0.917313278
  outer loop
  vertex 4.5 35.4668007 11.1926003
  vertex -4.5 35.4668007 11.1926003
  vertex -4.5 34.8496017 11.4604998
  endloop
 endfacet

 facet normal 0 0.498476177 0.866903305
  outer loop
  vertex -4.5 36.0500984 10.8571997
  vertex -4.5 35.4668007 11.1926003
  vertex 4.5 35.4668007 11.1926003
  endloop
 endfacet

 facet normal 0 0.498476177 0.866903305
  outer loop
  vertex 4.5 35.4668007 11.1926003
  vertex 4.5 36.0500984 10.8571997
  vertex -4.5 36.0500984 10.8571997
  endloop
 endfacet

 facet normal 0 0.678768992 0.734351993
  outer loop
  vertex 4.5 36.5922012 10.4587002
  vertex 4.5 37.0862999 10.0019999
  vertex -4.5 37.0862999 10.0019999
  endloop
 endfacet

 facet normal 0 0.678768992 0.734351993
  outer loop
  vertex -4.5 36.5922012 10.4587002
  vertex 4.5 36.5922012 10.4587002
  vertex -4.5 37.0862999 10.0019999
  endloop
 endfacet

 facet normal 0 0.592288792 0.805725694
  outer loop
  vertex 4.5 36.5922012 10.4587002
  vertex -4.5 36.0500984 10.8571997
  vertex 4.5 36.0500984 10.8571997
  endloop
 endfacet

 facet normal 0 0.592288792 0.805725694
  outer loop
  vertex 4.5 36.5922012 10.4587002
  vertex -4.5 36.5922012 10.4587002
  vertex -4.5 36.0500984 10.8571997
  endloop
 endfacet

 facet normal 0 0.921937823 -0.387337923
  outer loop
  vertex 4.5 36.8848 -6.70352983
  vertex -4.5 36.8848 -6.70352983
  vertex -4.5 37.1344986 -6.1092
  endloop
 endfacet

 facet normal 0 0.921937823 -0.387337923
  outer loop
  vertex 4.5 36.8848 -6.70352983
  vertex -4.5 37.1344986 -6.1092
  vertex 4.5 37.1344986 -6.1092
  endloop
 endfacet

 facet normal 0 0.875004947 -0.484113991
  outer loop
  vertex -4.5 36.5727005 -7.2676301
  vertex 4.5 36.8848 -6.70352983
  vertex 4.5 36.5727005 -7.2676301
  endloop
 endfacet

 facet normal 0 0.875004947 -0.484113991
  outer loop
  vertex 4.5 36.8848 -6.70352983
  vertex -4.5 36.5727005 -7.2676301
  vertex -4.5 36.8848 -6.70352983
  endloop
 endfacet

 facet normal 0 0.818106472 -0.575066626
  outer loop
  vertex 4.5 36.2019997 -7.79500008
  vertex -4.5 36.5727005 -7.2676301
  vertex 4.5 36.5727005 -7.2676301
  endloop
 endfacet

 facet normal 0 0.818106472 -0.575066626
  outer loop
  vertex -4.5 36.2019997 -7.79500008
  vertex -4.5 36.5727005 -7.2676301
  vertex 4.5 36.2019997 -7.79500008
  endloop
 endfacet

 facet normal 0 -0.821101725 0.570781827
  outer loop
  vertex -5.5 -6.34938002 3.99190998
  vertex 5.5 -6.34938002 3.99190998
  vertex -5.5 -5.95396996 4.56072998
  endloop
 endfacet

 facet normal 0 -0.821101725 0.570781827
  outer loop
  vertex 5.5 -5.95396996 4.56072998
  vertex -5.5 -5.95396996 4.56072998
  vertex 5.5 -6.34938002 3.99190998
  endloop
 endfacet

 facet normal 0 -0.870258749 0.492594868
  outer loop
  vertex 5.5 -6.34938002 3.99190998
  vertex -5.5 -6.34938002 3.99190998
  vertex -5.5 -6.69062996 3.38902998
  endloop
 endfacet

 facet normal 0 -0.870258749 0.492594868
  outer loop
  vertex -5.5 -6.69062996 3.38902998
  vertex 5.5 -6.69062996 3.38902998
  vertex 5.5 -6.34938002 3.99190998
  endloop
 endfacet

 facet normal 0 -0.945953965 0.324300975
  outer loop
  vertex 5.5 -6.97478008 2.75724006
  vertex -5.5 -6.97478008 2.75724006
  vertex -5.5 -7.19944 2.1019299
  endloop
 endfacet

 facet normal 0 -0.945953965 0.324300975
  outer loop
  vertex 5.5 -6.97478008 2.75724006
  vertex -5.5 -7.19944 2.1019299
  vertex 5.5 -7.19944 2.1019299
  endloop
 endfacet

 facet normal 0 -0.912005365 0.410178185
  outer loop
  vertex 5.5 -6.97478008 2.75724006
  vertex 5.5 -6.69062996 3.38902998
  vertex -5.5 -6.69062996 3.38902998
  endloop
 endfacet

 facet normal 0 -0.912005365 0.410178185
  outer loop
  vertex -5.5 -6.97478008 2.75724006
  vertex 5.5 -6.97478008 2.75724006
  vertex -5.5 -6.69062996 3.38902998
  endloop
 endfacet

 facet normal 0 -0.76492703 0.644116938
  outer loop
  vertex -5.5 -5.50776005 5.09063005
  vertex -5.5 -5.95396996 4.56072998
  vertex 5.5 -5.95396996 4.56072998
  endloop
 endfacet

 facet normal 0 -0.76492703 0.644116938
  outer loop
  vertex 5.5 -5.95396996 4.56072998
  vertex 5.5 -5.50776005 5.09063005
  vertex -5.5 -5.50776005 5.09063005
  endloop
 endfacet

 facet normal 0 -0.702240109 0.71194011
  outer loop
  vertex 5.5 -5.01456022 5.57710981
  vertex -5.5 -5.01456022 5.57710981
  vertex -5.5 -5.50776005 5.09063005
  endloop
 endfacet

 facet normal 0 -0.702240109 0.71194011
  outer loop
  vertex -5.5 -5.50776005 5.09063005
  vertex 5.5 -5.50776005 5.09063005
  vertex 5.5 -5.01456022 5.57710981
  endloop
 endfacet

 facet normal 0 -0.876937807 -0.480603904
  outer loop
  vertex -5.5 -6.40357018 -3.90438986
  vertex 5.5 -6.7365098 -3.29689002
  vertex -5.5 -6.7365098 -3.29689002
  endloop
 endfacet

 facet normal 0 -0.876937807 -0.480603904
  outer loop
  vertex 5.5 -6.40357018 -3.90438986
  vertex 5.5 -6.7365098 -3.29689002
  vertex -5.5 -6.40357018 -3.90438986
  endloop
 endfacet

 facet normal 0 -0.828860819 -0.559454858
  outer loop
  vertex -5.5 -6.40357018 -3.90438986
  vertex -5.5 -6.01600981 -4.47858
  vertex 5.5 -6.01600981 -4.47858
  endloop
 endfacet

 facet normal 0 -0.828860819 -0.559454858
  outer loop
  vertex -5.5 -6.40357018 -3.90438986
  vertex 5.5 -6.01600981 -4.47858
  vertex 5.5 -6.40357018 -3.90438986
  endloop
 endfacet

 facet normal 0 -0.71194011 -0.702240109
  outer loop
  vertex 5.5 -5.57710981 -5.01456022
  vertex -5.5 -5.57710981 -5.01456022
  vertex -5.5 -5.09063005 -5.50776005
  endloop
 endfacet

 facet normal 0 -0.71194011 -0.702240109
  outer loop
  vertex -5.5 -5.09063005 -5.50776005
  vertex 5.5 -5.09063005 -5.50776005
  vertex 5.5 -5.57710981 -5.01456022
  endloop
 endfacet

 facet normal 0 -0.644116938 -0.76492703
  outer loop
  vertex -5.5 -5.09063005 -5.50776005
  vertex -5.5 -4.56072998 -5.95396996
  vertex 5.5 -4.56072998 -5.95396996
  endloop
 endfacet

 facet normal 0 -0.644116938 -0.76492703
  outer loop
  vertex 5.5 -4.56072998 -5.95396996
  vertex 5.5 -5.09063005 -5.50776005
  vertex -5.5 -5.09063005 -5.50776005
  endloop
 endfacet

 facet normal 0 -0.971844256 0.235624045
  outer loop
  vertex -5.5 -7.36266994 1.42867994
  vertex 5.5 -7.19944 2.1019299
  vertex -5.5 -7.19944 2.1019299
  endloop
 endfacet

 facet normal 0 -0.971844256 0.235624045
  outer loop
  vertex -5.5 -7.36266994 1.42867994
  vertex 5.5 -7.36266994 1.42867994
  vertex 5.5 -7.19944 2.1019299
  endloop
 endfacet

 facet normal 0 -0.989439785 0.144943953
  outer loop
  vertex -5.5 -7.36266994 1.42867994
  vertex -5.5 -7.46307993 0.743246019
  vertex 5.5 -7.46307993 0.743246019
  endloop
 endfacet

 facet normal 0 -0.989439785 0.144943953
  outer loop
  vertex -5.5 -7.36266994 1.42867994
  vertex 5.5 -7.46307993 0.743246019
  vertex 5.5 -7.36266994 1.42867994
  endloop
 endfacet

 facet normal 0 0.958169162 -0.286202073
  outer loop
  vertex 4.5 37.1344986 -6.1092
  vertex -4.5 37.1344986 -6.1092
  vertex -4.5 37.3190002 -5.49150991
  endloop
 endfacet

 facet normal 0 0.958169162 -0.286202073
  outer loop
  vertex -4.5 37.3190002 -5.49150991
  vertex 4.5 37.3190002 -5.49150991
  vertex 4.5 37.1344986 -6.1092
  endloop
 endfacet

 facet normal 0 0.983335733 -0.18179895
  outer loop
  vertex -4.5 37.3190002 -5.49150991
  vertex -4.5 37.4361992 -4.8575902
  vertex 4.5 37.4361992 -4.8575902
  endloop
 endfacet

 facet normal 0 0.983335733 -0.18179895
  outer loop
  vertex -4.5 37.3190002 -5.49150991
  vertex 4.5 37.4361992 -4.8575902
  vertex 4.5 37.3190002 -5.49150991
  endloop
 endfacet

 facet normal -1 0 0
  outer loop
  vertex -12 26.6963997 6.11824989
  vertex -12 26.4533997 5.67973995
  vertex -12 26.8243999 7.10474014
  endloop
 endfacet

 facet normal -1 0 0
  outer loop
  vertex -12 22.8393002 6.86750984
  vertex -12 22.9039001 7.3646698
  vertex -12 26.8243999 7.10474014
  endloop
 endfacet

 facet normal -1 0 0
  outer loop
  vertex -12 26.1194 8.39748001
  vertex -12 26.4612999 8.03087044
  vertex -12 26.8243999 7.10474014
  endloop
 endfacet

 facet normal -1 0 0
  outer loop
  vertex -12 26.8243999 7.10474014
  vertex -12 24.2276993 8.7649498
  vertex -12 24.7205009 8.85723019
  endloop
 endfacet

 facet normal -1 0 0
  outer loop
  vertex -12 26.8243999 7.10474014
  vertex -12 25.6970005 8.6675396
  vertex -12 26.1194 8.39748001
  endloop
 endfacet

 facet normal -1 0 0
  outer loop
  vertex -12 26.8243999 7.10474014
  vertex -12 25.6847992 5.0482502
  vertex -12 25.2075005 4.8949399
  endloop
 endfacet

 facet normal -1 0 0
  outer loop
  vertex -12 26.8243999 7.10474014
  vertex -12 23.7619991 5.17573023
  vertex -12 23.3768005 5.49659014
  endloop
 endfacet

 facet normal -1 0 0
  outer loop
  vertex -12 23.3768005 5.49659014
  vertex -12 23.0834999 5.90317011
  vertex -12 26.8243999 7.10474014
  endloop
 endfacet

 facet normal -1 0 0
  outer loop
  vertex -12 26.8243999 7.10474014
  vertex -12 25.2206993 8.82406044
  vertex -12 25.6970005 8.6675396
  endloop
 endfacet

 facet normal -1 0 0
  outer loop
  vertex -12 24.7070007 4.86514997
  vertex -12 26.8243999 7.10474014
  vertex -12 25.2075005 4.8949399
  endloop
 endfacet

 facet normal -1 0 0
  outer loop
  vertex -12 23.0900002 7.83017015
  vertex -12 23.3859997 8.23476982
  vertex -12 26.8243999 7.10474014
  endloop
 endfacet

 facet normal -1 0 0
  outer loop
  vertex -12 26.8243999 7.10474014
  vertex -12 26.4612999 8.03087044
  vertex -12 26.7014008 7.5907402
  endloop
 endfacet

 facet normal -1 0 0
  outer loop
  vertex -12 26.8243999 7.10474014
  vertex -12 24.7070007 4.86514997
  vertex -12 24.2148991 4.96074009
  endloop
 endfacet

 facet normal -1 0 0
  outer loop
  vertex -12 26.8243999 7.10474014
  vertex -12 23.0834999 5.90317011
  vertex -12 22.9004993 6.36991978
  endloop
 endfacet

 facet normal -1 0 0
  outer loop
  vertex -12 24.2148991 4.96074009
  vertex -12 23.7619991 5.17573023
  vertex -12 26.8243999 7.10474014
  endloop
 endfacet

 facet normal -1 0 0
  outer loop
  vertex -12 22.9004993 6.36991978
  vertex -12 22.8393002 6.86750984
  vertex -12 26.8243999 7.10474014
  endloop
 endfacet

 facet normal -1 0 0
  outer loop
  vertex -12 26.1089993 5.31545019
  vertex -12 25.6847992 5.0482502
  vertex -12 26.8243999 7.10474014
  endloop
 endfacet

 facet normal -1 0 0
  outer loop
  vertex -12 26.8243999 7.10474014
  vertex -12 26.4533997 5.67973995
  vertex -12 26.1089993 5.31545019
  endloop
 endfacet

 facet normal -1 0 0
  outer loop
  vertex -12 26.8243999 7.10474014
  vertex -12 26.8227005 6.60340977
  vertex -12 26.6963997 6.11824989
  endloop
 endfacet

 facet normal -1 0 0
  outer loop
  vertex -12 24.7205009 8.85723019
  vertex -12 25.2206993 8.82406044
  vertex -12 26.8243999 7.10474014
  endloop
 endfacet

 facet normal -1 0 0
  outer loop
  vertex -12 26.8243999 7.10474014
  vertex -12 22.9039001 7.3646698
  vertex -12 23.0900002 7.83017015
  endloop
 endfacet

 facet normal -1 0 0
  outer loop
  vertex -12 23.3859997 8.23476982
  vertex -12 23.7733994 8.55302048
  vertex -12 26.8243999 7.10474014
  endloop
 endfacet

 facet normal -1 0 0
  outer loop
  vertex -12 26.8243999 7.10474014
  vertex -12 23.7733994 8.55302048
  vertex -12 24.2276993 8.7649498
  endloop
 endfacet

 facet normal 0 0.204119995 -0.978945911
  outer loop
  vertex -4.5 33.024601 -9.88490963
  vertex 4.5 32.3935013 -10.0165005
  vertex -4.5 32.3935013 -10.0165005
  endloop
 endfacet

 facet normal 0 0.204119995 -0.978945911
  outer loop
  vertex 4.5 33.024601 -9.88490963
  vertex 4.5 32.3935013 -10.0165005
  vertex -4.5 33.024601 -9.88490963
  endloop
 endfacet

 facet normal 0 -0.559454858 0.828860819
  outer loop
  vertex -5.5 -4.47858 6.01600981
  vertex 5.5 -3.90438986 6.40357018
  vertex -5.5 -3.90438986 6.40357018
  endloop
 endfacet

 facet normal 0 -0.559454858 0.828860819
  outer loop
  vertex 5.5 -4.47858 6.01600981
  vertex 5.5 -3.90438986 6.40357018
  vertex -5.5 -4.47858 6.01600981
  endloop
 endfacet

 facet normal 0 -0.633558095 0.773695171
  outer loop
  vertex -5.5 -4.47858 6.01600981
  vertex -5.5 -5.01456022 5.57710981
  vertex 5.5 -5.01456022 5.57710981
  endloop
 endfacet

 facet normal 0 -0.633558095 0.773695171
  outer loop
  vertex -5.5 -4.47858 6.01600981
  vertex 5.5 -5.01456022 5.57710981
  vertex 5.5 -4.47858 6.01600981
  endloop
 endfacet

 facet normal 0 -0.410178185 -0.912005365
  outer loop
  vertex 5.5 -3.38902998 -6.69062996
  vertex -5.5 -2.75724006 -6.97478008
  vertex 5.5 -2.75724006 -6.97478008
  endloop
 endfacet

 facet normal 0 -0.410178185 -0.912005365
  outer loop
  vertex -5.5 -3.38902998 -6.69062996
  vertex -5.5 -2.75724006 -6.97478008
  vertex 5.5 -3.38902998 -6.69062996
  endloop
 endfacet

 facet normal 0 0.988533914 0.15099898
  outer loop
  vertex -4.5 38.644001 7.06780005
  vertex 4.5 38.644001 7.06780005
  vertex -4.5 38.7456017 6.40265989
  endloop
 endfacet

 facet normal 0 0.988533914 0.15099898
  outer loop
  vertex -4.5 38.7456017 6.40265989
  vertex 4.5 38.644001 7.06780005
  vertex 4.5 38.7456017 6.40265989
  endloop
 endfacet

 facet normal 0 0.408256173 -0.912867427
  outer loop
  vertex -4.5 34.2263985 -9.42317963
  vertex 4.5 34.2263985 -9.42317963
  vertex -4.5 33.6379013 -9.6863699
  endloop
 endfacet

 facet normal 0 0.408256173 -0.912867427
  outer loop
  vertex -4.5 33.6379013 -9.6863699
  vertex 4.5 34.2263985 -9.42317963
  vertex 4.5 33.6379013 -9.6863699
  endloop
 endfacet

 facet normal 0 0.307987154 -0.951390505
  outer loop
  vertex 4.5 33.024601 -9.88490963
  vertex -4.5 33.024601 -9.88490963
  vertex -4.5 33.6379013 -9.6863699
  endloop
 endfacet

 facet normal 0 0.307987154 -0.951390505
  outer loop
  vertex -4.5 33.6379013 -9.6863699
  vertex 4.5 33.6379013 -9.6863699
  vertex 4.5 33.024601 -9.88490963
  endloop
 endfacet

 facet normal 0 0.503893077 -0.863766134
  outer loop
  vertex -4.5 34.7831993 -9.09836006
  vertex 4.5 34.2263985 -9.42317963
  vertex -4.5 34.2263985 -9.42317963
  endloop
 endfacet

 facet normal 0 0.503893077 -0.863766134
  outer loop
  vertex -4.5 34.7831993 -9.09836006
  vertex 4.5 34.7831993 -9.09836006
  vertex 4.5 34.2263985 -9.42317963
  endloop
 endfacet

 facet normal 0 0.593608141 -0.804754198
  outer loop
  vertex -4.5 34.7831993 -9.09836006
  vertex 4.5 35.3019981 -8.71568012
  vertex 4.5 34.7831993 -9.09836006
  endloop
 endfacet

 facet normal 0 0.593608141 -0.804754198
  outer loop
  vertex -4.5 34.7831993 -9.09836006
  vertex -4.5 35.3019981 -8.71568012
  vertex 4.5 35.3019981 -8.71568012
  endloop
 endfacet

 facet normal 0 0.751561284 -0.65966332
  outer loop
  vertex -4.5 36.2019997 -7.79500008
  vertex 4.5 36.2019997 -7.79500008
  vertex -4.5 35.7766991 -8.2795496
  endloop
 endfacet

 facet normal 0 0.751561284 -0.65966332
  outer loop
  vertex -4.5 35.7766991 -8.2795496
  vertex 4.5 36.2019997 -7.79500008
  vertex 4.5 35.7766991 -8.2795496
  endloop
 endfacet

 facet normal 0 0.676557124 -0.736390114
  outer loop
  vertex -4.5 35.7766991 -8.2795496
  vertex 4.5 35.3019981 -8.71568012
  vertex -4.5 35.3019981 -8.71568012
  endloop
 endfacet

 facet normal 0 0.676557124 -0.736390114
  outer loop
  vertex 4.5 35.3019981 -8.71568012
  vertex -4.5 35.7766991 -8.2795496
  vertex 4.5 35.7766991 -8.2795496
  endloop
 endfacet

 facet normal 0 -0.570781827 -0.821101725
  outer loop
  vertex 5.5 -4.56072998 -5.95396996
  vertex -5.5 -4.56072998 -5.95396996
  vertex 5.5 -3.99190998 -6.34938002
  endloop
 endfacet

 facet normal 0 -0.570781827 -0.821101725
  outer loop
  vertex -5.5 -4.56072998 -5.95396996
  vertex -5.5 -3.99190998 -6.34938002
  vertex 5.5 -3.99190998 -6.34938002
  endloop
 endfacet

 facet normal 0 -0.492594868 -0.870258749
  outer loop
  vertex 5.5 -3.38902998 -6.69062996
  vertex 5.5 -3.99190998 -6.34938002
  vertex -5.5 -3.38902998 -6.69062996
  endloop
 endfacet

 facet normal 0 -0.492594868 -0.870258749
  outer loop
  vertex 5.5 -3.99190998 -6.34938002
  vertex -5.5 -3.99190998 -6.34938002
  vertex -5.5 -3.38902998 -6.69062996
  endloop
 endfacet

 facet normal 0 -0.144943953 -0.989439785
  outer loop
  vertex 5.5 -0.743246019 -7.46307993
  vertex 5.5 -1.42867994 -7.36266994
  vertex -5.5 -1.42867994 -7.36266994
  endloop
 endfacet

 facet normal 0 -0.144943953 -0.989439785
  outer loop
  vertex -5.5 -0.743246019 -7.46307993
  vertex 5.5 -0.743246019 -7.46307993
  vertex -5.5 -1.42867994 -7.36266994
  endloop
 endfacet

 facet normal 0 -0.0816875994 -0.996658027
  outer loop
  vertex -4.5 31.1072998 -10.0735998
  vertex 4.5 31.1072998 -10.0735998
  vertex 5.5 -0.743246019 -7.46307993
  endloop
 endfacet

 facet normal 0 -0.0816875994 -0.996658027
  outer loop
  vertex 5.5 -0.743246019 -7.46307993
  vertex -5.5 -0.743246019 -7.46307993
  vertex -4.5 31.1072998 -10.0735998
  endloop
 endfacet

 facet normal 0 -0.324300975 -0.945953965
  outer loop
  vertex 5.5 -2.1019299 -7.19944
  vertex 5.5 -2.75724006 -6.97478008
  vertex -5.5 -2.75724006 -6.97478008
  endloop
 endfacet

 facet normal 0 -0.324300975 -0.945953965
  outer loop
  vertex 5.5 -2.1019299 -7.19944
  vertex -5.5 -2.75724006 -6.97478008
  vertex -5.5 -2.1019299 -7.19944
  endloop
 endfacet

 facet normal 0 -0.235624045 -0.971844256
  outer loop
  vertex 5.5 -2.1019299 -7.19944
  vertex -5.5 -1.42867994 -7.36266994
  vertex 5.5 -1.42867994 -7.36266994
  endloop
 endfacet

 facet normal 0 -0.235624045 -0.971844256
  outer loop
  vertex 5.5 -2.1019299 -7.19944
  vertex -5.5 -2.1019299 -7.19944
  vertex -5.5 -1.42867994 -7.36266994
  endloop
 endfacet

 facet normal 0 0.997334123 -0.0729712173
  outer loop
  vertex 4.5 38.7229004 5.05926991
  vertex -4.5 38.7229004 5.05926991
  vertex -4.5 38.7719994 5.73032999
  endloop
 endfacet

 facet normal 0 0.997334123 -0.0729712173
  outer loop
  vertex -4.5 38.7719994 5.73032999
  vertex 4.5 38.7719994 5.73032999
  vertex 4.5 38.7229004 5.05926991
  endloop
 endfacet

 facet normal 0 0.999230087 0.0392328016
  outer loop
  vertex -4.5 38.7719994 5.73032999
  vertex -4.5 38.7456017 6.40265989
  vertex 4.5 38.7456017 6.40265989
  endloop
 endfacet

 facet normal 0 0.999230087 0.0392328016
  outer loop
  vertex 4.5 38.7456017 6.40265989
  vertex 4.5 38.7719994 5.73032999
  vertex -4.5 38.7719994 5.73032999
  endloop
 endfacet

endsolid AssimpScene
