solid AssimpScene
 facet normal 0.274633974 -0.688759923 0.670958936
  outer loop
  vertex 12 32.5535011 47.3539009
  vertex 16.7877007 18.9747009 31.4552002
  vertex 12 33.1012001 47.9160995
  endloop
 endfacet

 facet normal 0.000909476774 -0.760269761 0.649606884
  outer loop
  vertex 16.9466 18.5116005 30.9130001
  vertex 16.7877007 18.9747009 31.4552002
  vertex 12 32.5535011 47.3539009
  endloop
 endfacet

 facet normal -0.9190014 0.391521782 -0.0463352725
  outer loop
  vertex -12 43.0154991 42.3638
  vertex -13.5 39.5639992 42.9501991
  vertex -12 43.1077003 43.1431999
  endloop
 endfacet

 facet normal -0.274633974 -0.688759923 0.670958936
  outer loop
  vertex -16.7877007 18.9747009 31.4552002
  vertex -12 32.5535011 47.3539009
  vertex -12 33.1012001 47.9160995
  endloop
 endfacet

 facet normal -0.0010152196 -0.760228693 0.649654746
  outer loop
  vertex -12 32.5535011 47.3539009
  vertex -16.7877007 18.9747009 31.4552002
  vertex -16.9466 18.5116005 30.9130001
  endloop
 endfacet

 facet normal 2.67985001e-07 -0.760406017 0.649448037
  outer loop
  vertex 15.1956997 20.5359001 33.2831001
  vertex 12 32.5535011 47.3539009
  vertex 7.39096022 22.403801 35.4701004
  endloop
 endfacet

 facet normal -0.918698192 -0.107210025 0.380131096
  outer loop
  vertex -13.5 36.532299 45.8880997
  vertex -12 35.1130981 49.112999
  vertex -12 35.8684998 49.3260994
  endloop
 endfacet

 facet normal -0.91971302 -0.131494999 0.369915009
  outer loop
  vertex -16.9466 18.5116005 30.9130001
  vertex -12 35.1130981 49.112999
  vertex -13.5 36.532299 45.8880997
  endloop
 endfacet

 facet normal -0.899247408 -0.172675908 0.401916772
  outer loop
  vertex -12 34.3919983 48.8031998
  vertex -12 35.1130981 49.112999
  vertex -16.9466 18.5116005 30.9130001
  endloop
 endfacet

 facet normal -0.826239049 -0.288024038 0.484119087
  outer loop
  vertex -12 33.7174988 48.4020004
  vertex -12 34.3919983 48.8031998
  vertex -16.9466 18.5116005 30.9130001
  endloop
 endfacet

 facet normal -0.673255801 -0.453064859 0.584344804
  outer loop
  vertex -16.7877007 18.9747009 31.4552002
  vertex -12 33.7174988 48.4020004
  vertex -16.9466 18.5116005 30.9130001
  endloop
 endfacet

 facet normal -0.657818139 -0.46628508 0.591484129
  outer loop
  vertex -16.7877007 18.9747009 31.4552002
  vertex -12 33.1012001 47.9160995
  vertex -12 33.7174988 48.4020004
  endloop
 endfacet

 facet normal 0.673408687 0.647932708 -0.355954856
  outer loop
  vertex 16.9466 27.6364994 23.1196003
  vertex 16.7877007 28.0995998 23.6618004
  vertex 12 42.5315018 40.8740997
  endloop
 endfacet

 facet normal 0.000570839678 0.760490596 -0.649348617
  outer loop
  vertex 16.9466 27.6364994 23.1196003
  vertex 12 41.6783981 39.5605011
  vertex 16.7877007 28.0995998 23.6618004
  endloop
 endfacet

 facet normal 0.657794893 0.657158792 -0.368032932
  outer loop
  vertex 16.7877007 28.0995998 23.6618004
  vertex 12 42.1479988 40.1893997
  vertex 12 42.5315018 40.8740997
  endloop
 endfacet

 facet normal 0.274648905 0.770442784 -0.575313807
  outer loop
  vertex 16.7877007 28.0995998 23.6618004
  vertex 12 41.6783981 39.5605011
  vertex 12 42.1479988 40.1893997
  endloop
 endfacet

 facet normal -0.274648905 0.770442784 -0.575313807
  outer loop
  vertex -16.7877007 28.0995998 23.6618004
  vertex -12 42.1479988 40.1893997
  vertex -12 41.6783981 39.5605011
  endloop
 endfacet

 facet normal -0.657797039 0.657157123 -0.368032068
  outer loop
  vertex -12 42.1479988 40.1893997
  vertex -16.7877007 28.0995998 23.6618004
  vertex -12 42.5315018 40.8740997
  endloop
 endfacet

 facet normal -0.995954752 0.058357086 0.0683272779
  outer loop
  vertex -19.5 9.25638008 1.59921002
  vertex -19.5 0.131505996 9.39258957
  vertex -16.9466 18.5116005 30.9130001
  endloop
 endfacet

 facet normal -2.89301028e-07 -0.760406017 0.649448037
  outer loop
  vertex -15.1956997 20.5359001 33.2831001
  vertex -17.9755993 2.46591997 12.1258001
  vertex -8.29409981 16.1091995 28.1000996
  endloop
 endfacet

 facet normal 1.4108201e-05 -0.760406017 0.649448037
  outer loop
  vertex 19.5 0.131505996 9.39258957
  vertex 19.3223 0.989513993 10.3971996
  vertex 19.5 -4.56243992 3.89668989
  endloop
 endfacet

 facet normal -0.966148436 -0.0283074118 0.256429106
  outer loop
  vertex -13.5 36.532299 45.8880997
  vertex -13.5 37.155201 45.9569016
  vertex -16.9466 18.5116005 30.9130001
  endloop
 endfacet

 facet normal -0.981195271 0.0271964073 0.191092044
  outer loop
  vertex -16.9466 18.5116005 30.9130001
  vertex -13.5 37.155201 45.9569016
  vertex -13.5 37.7756004 45.8685989
  endloop
 endfacet

 facet normal -0.989574671 0.0864714608 0.115171954
  outer loop
  vertex -13.5 38.354599 45.6287994
  vertex -13.5 38.8557014 45.2524986
  vertex -16.9466 18.5116005 30.9130001
  endloop
 endfacet

 facet normal -0.987027705 0.0614392869 0.14832896
  outer loop
  vertex -13.5 37.7756004 45.8685989
  vertex -13.5 38.354599 45.6287994
  vertex -16.9466 18.5116005 30.9130001
  endloop
 endfacet

 facet normal -0.919731021 0.0553108007 0.388633013
  outer loop
  vertex -13.5 37.155201 45.9569016
  vertex -12 38.2094002 49.3567009
  vertex -13.5 37.7756004 45.8685989
  endloop
 endfacet

 facet normal -0.919465005 0.236065 0.314415991
  outer loop
  vertex -13.5 38.354599 45.6287994
  vertex -12 41.0125999 48.0195999
  vertex -13.5 38.8557014 45.2524986
  endloop
 endfacet

 facet normal -0.919391096 0.235345036 0.315171033
  outer loop
  vertex -13.5 38.354599 45.6287994
  vertex -12 40.3838005 48.4892006
  vertex -12 41.0125999 48.0195999
  endloop
 endfacet

 facet normal -2.08890015e-07 -0.760406017 0.649448037
  outer loop
  vertex -7.39096022 22.403801 35.4701004
  vertex -15.1956997 20.5359001 33.2831001
  vertex -8.29409981 16.1091995 28.1000996
  endloop
 endfacet

 facet normal -2.67985001e-07 -0.760406017 0.649448037
  outer loop
  vertex -15.1956997 20.5359001 33.2831001
  vertex -7.39096022 22.403801 35.4701004
  vertex -12 32.5535011 47.3539009
  endloop
 endfacet

 facet normal 1.89347011e-05 0.760406017 -0.649448037
  outer loop
  vertex 19.3223 10.1143999 2.60381007
  vertex 19.5 9.25638008 1.59921002
  vertex 19.5 4.56243992 -3.89668989
  endloop
 endfacet

 facet normal 5.64453148e-05 0.760409236 -0.649444163
  outer loop
  vertex 19.3223 10.1143999 2.60381007
  vertex 16.9466 27.6364994 23.1196003
  vertex 19.5 9.25638008 1.59921002
  endloop
 endfacet

 facet normal 0.995954752 0.058357086 0.0683272779
  outer loop
  vertex 19.5 0.131505996 9.39258957
  vertex 19.5 9.25638008 1.59921002
  vertex 16.9466 18.5116005 30.9130001
  endloop
 endfacet

 facet normal 0.995954752 0.058357086 0.0683272779
  outer loop
  vertex 16.9466 18.5116005 30.9130001
  vertex 19.5 9.25638008 1.59921002
  vertex 16.9466 27.6364994 23.1196003
  endloop
 endfacet

 facet normal 0.98994118 0.0918835178 0.107582025
  outer loop
  vertex 16.9466 27.6364994 23.1196003
  vertex 13.5 38.8557014 45.2524986
  vertex 16.9466 18.5116005 30.9130001
  endloop
 endfacet

 facet normal 0.988564193 0.117689021 0.0942865238
  outer loop
  vertex 13.5 39.2476006 44.7635002
  vertex 13.5 38.8557014 45.2524986
  vertex 16.9466 27.6364994 23.1196003
  endloop
 endfacet

 facet normal 0.918627858 0.33957094 0.202025965
  outer loop
  vertex 13.5 39.2476006 44.7635002
  vertex 12 42.4620018 46.1810989
  vertex 12 42.0606995 46.8555984
  endloop
 endfacet

 facet normal -0.919207752 0.361796916 0.155434966
  outer loop
  vertex -12 42.771801 45.4599991
  vertex -13.5 39.5054016 44.1922989
  vertex -12 42.4620018 46.1810989
  endloop
 endfacet

 facet normal 0 -0.760406017 0.649448037
  outer loop
  vertex -15.1956997 20.5359001 33.2831001
  vertex -19.3223 0.989513993 10.3971996
  vertex -17.9755993 2.46591997 12.1258001
  endloop
 endfacet

 facet normal -1.4108201e-05 -0.760406017 0.649448037
  outer loop
  vertex -19.5 0.131505996 9.39258957
  vertex -19.5 -4.56243992 3.89668989
  vertex -19.3223 0.989513993 10.3971996
  endloop
 endfacet

 facet normal 2.08890015e-07 -0.760406017 0.649448037
  outer loop
  vertex 7.39096022 22.403801 35.4701004
  vertex 8.29409981 16.1091995 28.1000996
  vertex 15.1956997 20.5359001 33.2831001
  endloop
 endfacet

 facet normal 0.000174420988 -0.76038897 0.649468005
  outer loop
  vertex 19.5 0.131505996 9.39258957
  vertex 16.9466 18.5116005 30.9130001
  vertex 17 18.0384998 30.3589001
  endloop
 endfacet

 facet normal 3.94177805e-05 -0.760403633 0.649450719
  outer loop
  vertex 19.5 0.131505996 9.39258957
  vertex 17 18.0384998 30.3589001
  vertex 19.3223 0.989513993 10.3971996
  endloop
 endfacet

 facet normal 1.58797002e-06 -0.760406017 0.649448037
  outer loop
  vertex 19.3223 0.989513993 10.3971996
  vertex 17 18.0384998 30.3589001
  vertex 15.1956997 20.5359001 33.2831001
  endloop
 endfacet

 facet normal 2.06293953e-05 -0.760402739 0.649451733
  outer loop
  vertex 16.9466 18.5116005 30.9130001
  vertex 12 32.5535011 47.3539009
  vertex 17 18.0384998 30.3589001
  endloop
 endfacet

 facet normal 2.16959006e-06 -0.760406017 0.649448037
  outer loop
  vertex 15.1956997 20.5359001 33.2831001
  vertex 17 18.0384998 30.3589001
  vertex 12 32.5535011 47.3539009
  endloop
 endfacet

 facet normal 0.826244116 0.523210049 -0.208739027
  outer loop
  vertex 12 42.8223 41.6030998
  vertex 16.9466 27.6364994 23.1196003
  vertex 12 42.5315018 40.8740997
  endloop
 endfacet

 facet normal 0.899246097 0.423983067 -0.107679009
  outer loop
  vertex 12 42.8223 41.6030998
  vertex 12 43.0154991 42.3638
  vertex 16.9466 27.6364994 23.1196003
  endloop
 endfacet

 facet normal -0.918636382 0.0972566456 0.382946789
  outer loop
  vertex -12 38.2094002 49.3567009
  vertex -12 38.9701004 49.1635017
  vertex -13.5 37.7756004 45.8685989
  endloop
 endfacet

 facet normal -0.9191522 0.0462978072 0.391172081
  outer loop
  vertex -13.5 37.155201 45.9569016
  vertex -12 37.4300003 49.4490013
  vertex -12 38.2094002 49.3567009
  endloop
 endfacet

 facet normal 0.918636382 0.0972566456 0.382946789
  outer loop
  vertex 13.5 37.7756004 45.8685989
  vertex 12 38.9701004 49.1635017
  vertex 12 38.2094002 49.3567009
  endloop
 endfacet

 facet normal 0.657818139 -0.46628508 0.591484129
  outer loop
  vertex 16.7877007 18.9747009 31.4552002
  vertex 12 33.7174988 48.4020004
  vertex 12 33.1012001 47.9160995
  endloop
 endfacet

 facet normal 0.673253357 -0.45307824 0.584337354
  outer loop
  vertex 12 33.7174988 48.4020004
  vertex 16.7877007 18.9747009 31.4552002
  vertex 16.9466 18.5116005 30.9130001
  endloop
 endfacet

 facet normal 0.919048667 -0.0565528721 0.390065819
  outer loop
  vertex 12 35.8684998 49.3260994
  vertex 13.5 36.532299 45.8880997
  vertex 12 36.6451988 49.4387016
  endloop
 endfacet

 facet normal 0.826239049 -0.288024038 0.484119087
  outer loop
  vertex 12 34.3919983 48.8031998
  vertex 12 33.7174988 48.4020004
  vertex 16.9466 18.5116005 30.9130001
  endloop
 endfacet

 facet normal -1.93060005e-05 0.760406017 -0.649448037
  outer loop
  vertex -19.5 9.25638008 1.59921002
  vertex -19.3223 10.1143999 2.60381007
  vertex -19.5 4.56243992 -3.89668989
  endloop
 endfacet

 facet normal 2.64332016e-07 0.760406017 -0.649448037
  outer loop
  vertex 8.29409981 25.2341003 20.3066998
  vertex 13.1548004 30.4682007 26.4351006
  vertex 19.3223 10.1143999 2.60381007
  endloop
 endfacet

 facet normal 0 0.760406017 -0.649448037
  outer loop
  vertex 19.3223 10.1143999 2.60381007
  vertex 13.1548004 30.4682007 26.4351006
  vertex 16.9466 27.6364994 23.1196003
  endloop
 endfacet

 facet normal 3.27417013e-07 0.760406017 -0.649448037
  outer loop
  vertex 12 41.6783981 39.5605011
  vertex 13.1548004 30.4682007 26.4351006
  vertex 8.29409981 25.2341003 20.3066998
  endloop
 endfacet

 facet normal 4.41977988e-07 0.760406017 -0.649448037
  outer loop
  vertex 16.9466 27.6364994 23.1196003
  vertex 13.1548004 30.4682007 26.4351006
  vertex 12 41.6783981 39.5605011
  endloop
 endfacet

 facet normal -2.04980012e-07 0.760406017 -0.649448037
  outer loop
  vertex -12 41.6783981 39.5605011
  vertex -6.56273985 30.5970001 26.5858994
  vertex -8.29409981 25.2341003 20.3066998
  endloop
 endfacet

 facet normal 0.984719574 0.158718944 0.0716632679
  outer loop
  vertex 13.5 39.5054016 44.1922989
  vertex 13.5 39.2476006 44.7635002
  vertex 16.9466 27.6364994 23.1196003
  endloop
 endfacet

 facet normal 0.975599885 0.216286972 0.0377471931
  outer loop
  vertex 13.5 39.6132011 43.5750008
  vertex 13.5 39.5054016 44.1922989
  vertex 16.9466 27.6364994 23.1196003
  endloop
 endfacet

 facet normal 0.919780374 0.386590153 0.0674691275
  outer loop
  vertex 12 42.9847984 44.7047005
  vertex 13.5 39.5054016 44.1922989
  vertex 13.5 39.6132011 43.5750008
  endloop
 endfacet

 facet normal 0.919674635 0.357891858 0.161591932
  outer loop
  vertex 13.5 39.2476006 44.7635002
  vertex 13.5 39.5054016 44.1922989
  vertex 12 42.4620018 46.1810989
  endloop
 endfacet

 facet normal 0.919160008 0.38705197 -0.0730463937
  outer loop
  vertex 12 43.0154991 42.3638
  vertex 13.5 39.5639992 42.9501991
  vertex 16.9466 27.6364994 23.1196003
  endloop
 endfacet

 facet normal 0.948637128 0.315391034 -0.0248217043
  outer loop
  vertex 16.9466 27.6364994 23.1196003
  vertex 13.5 39.5639992 42.9501991
  vertex 13.5 39.6132011 43.5750008
  endloop
 endfacet

 facet normal 0.9190014 0.391521782 -0.0463352725
  outer loop
  vertex 12 43.0154991 42.3638
  vertex 12 43.1077003 43.1431999
  vertex 13.5 39.5639992 42.9501991
  endloop
 endfacet

 facet normal 0.919859886 0.391037971 -0.0307749957
  outer loop
  vertex 13.5 39.6132011 43.5750008
  vertex 13.5 39.5639992 42.9501991
  vertex 12 43.1077003 43.1431999
  endloop
 endfacet

 facet normal 0.919099271 0.38994813 0.056541618
  outer loop
  vertex 13.5 39.6132011 43.5750008
  vertex 12 43.0974998 43.9280014
  vertex 12 42.9847984 44.7047005
  endloop
 endfacet

 facet normal 0.918678701 0.394971877 0.00516842818
  outer loop
  vertex 12 43.0974998 43.9280014
  vertex 13.5 39.6132011 43.5750008
  vertex 12 43.1077003 43.1431999
  endloop
 endfacet

 facet normal 0.987027705 0.0614392869 0.14832896
  outer loop
  vertex 13.5 38.354599 45.6287994
  vertex 13.5 37.7756004 45.8685989
  vertex 16.9466 18.5116005 30.9130001
  endloop
 endfacet

 facet normal 0.989574671 0.0864714608 0.115171954
  outer loop
  vertex 13.5 38.8557014 45.2524986
  vertex 13.5 38.354599 45.6287994
  vertex 16.9466 18.5116005 30.9130001
  endloop
 endfacet

 facet normal 0.919391096 0.235345036 0.315171033
  outer loop
  vertex 13.5 38.354599 45.6287994
  vertex 12 41.0125999 48.0195999
  vertex 12 40.3838005 48.4892006
  endloop
 endfacet

 facet normal 0.919465005 0.236065 0.314415991
  outer loop
  vertex 13.5 38.8557014 45.2524986
  vertex 12 41.0125999 48.0195999
  vertex 13.5 38.354599 45.6287994
  endloop
 endfacet

 facet normal 0.919327319 0.309016079 0.243611068
  outer loop
  vertex 13.5 39.2476006 44.7635002
  vertex 12 42.0606995 46.8555984
  vertex 12 41.5747986 47.4720001
  endloop
 endfacet

 facet normal 0.91954124 0.306704074 0.245716065
  outer loop
  vertex 12 41.5747986 47.4720001
  vertex 13.5 38.8557014 45.2524986
  vertex 13.5 39.2476006 44.7635002
  endloop
 endfacet

 facet normal 0.918619215 0.275730073 0.283040047
  outer loop
  vertex 12 41.5747986 47.4720001
  vertex 12 41.0125999 48.0195999
  vertex 13.5 38.8557014 45.2524986
  endloop
 endfacet

 facet normal 0.918647349 0.380245149 0.107241035
  outer loop
  vertex 12 42.771801 45.4599991
  vertex 13.5 39.5054016 44.1922989
  vertex 12 42.9847984 44.7047005
  endloop
 endfacet

 facet normal 0.919207752 0.361796916 0.155434966
  outer loop
  vertex 13.5 39.5054016 44.1922989
  vertex 12 42.771801 45.4599991
  vertex 12 42.4620018 46.1810989
  endloop
 endfacet

 facet normal -0.918678701 0.394971877 0.00516842818
  outer loop
  vertex -12 43.1077003 43.1431999
  vertex -13.5 39.6132011 43.5750008
  vertex -12 43.0974998 43.9280014
  endloop
 endfacet

 facet normal -0.919859886 0.391037971 -0.0307749957
  outer loop
  vertex -13.5 39.5639992 42.9501991
  vertex -13.5 39.6132011 43.5750008
  vertex -12 43.1077003 43.1431999
  endloop
 endfacet

 facet normal -0.918627858 0.33957094 0.202025965
  outer loop
  vertex -13.5 39.2476006 44.7635002
  vertex -12 42.0606995 46.8555984
  vertex -12 42.4620018 46.1810989
  endloop
 endfacet

 facet normal -0.919674635 0.357891858 0.161591932
  outer loop
  vertex -13.5 39.5054016 44.1922989
  vertex -13.5 39.2476006 44.7635002
  vertex -12 42.4620018 46.1810989
  endloop
 endfacet

 facet normal -0.000174420988 -0.76038897 0.649468005
  outer loop
  vertex -19.5 0.131505996 9.39258957
  vertex -17 18.0384998 30.3589001
  vertex -16.9466 18.5116005 30.9130001
  endloop
 endfacet

 facet normal -4.06122817e-05 -0.760403633 0.649450719
  outer loop
  vertex -19.3223 0.989513993 10.3971996
  vertex -17 18.0384998 30.3589001
  vertex -19.5 0.131505996 9.39258957
  endloop
 endfacet

 facet normal -1.29022999e-06 -0.760406017 0.649448037
  outer loop
  vertex -17 18.0384998 30.3589001
  vertex -19.3223 0.989513993 10.3971996
  vertex -15.1956997 20.5359001 33.2831001
  endloop
 endfacet

 facet normal -1.86831985e-05 -0.760400951 0.649453938
  outer loop
  vertex -12 32.5535011 47.3539009
  vertex -16.9466 18.5116005 30.9130001
  vertex -17 18.0384998 30.3589001
  endloop
 endfacet

 facet normal -2.16959006e-06 -0.760406017 0.649448037
  outer loop
  vertex -15.1956997 20.5359001 33.2831001
  vertex -12 32.5535011 47.3539009
  vertex -17 18.0384998 30.3589001
  endloop
 endfacet

 facet normal 6.12309975e-07 -0.760406017 0.649448037
  outer loop
  vertex 19.3223 0.989513993 10.3971996
  vertex 15.1956997 20.5359001 33.2831001
  vertex 17.9755993 2.46591997 12.1258001
  endloop
 endfacet

 facet normal 2.53138012e-07 -0.760406017 0.649448037
  outer loop
  vertex 8.29409981 16.1091995 28.1000996
  vertex 17.9755993 2.46591997 12.1258001
  vertex 15.1956997 20.5359001 33.2831001
  endloop
 endfacet

 facet normal -0.918647468 0.380244792 0.10724093
  outer loop
  vertex -13.5 39.5054016 44.1922989
  vertex -12 42.771801 45.4599991
  vertex -12 42.9847984 44.7047005
  endloop
 endfacet

 facet normal -0.919780374 0.386590153 0.0674691275
  outer loop
  vertex -13.5 39.5054016 44.1922989
  vertex -12 42.9847984 44.7047005
  vertex -13.5 39.6132011 43.5750008
  endloop
 endfacet

 facet normal -0.919099271 0.38994813 0.056541618
  outer loop
  vertex -13.5 39.6132011 43.5750008
  vertex -12 42.9847984 44.7047005
  vertex -12 43.0974998 43.9280014
  endloop
 endfacet

 facet normal -0.918622196 0.193073034 0.344755083
  outer loop
  vertex -13.5 38.354599 45.6287994
  vertex -12 39.6990013 48.8726997
  vertex -12 40.3838005 48.4892006
  endloop
 endfacet

 facet normal -0.919611156 0.150328025 0.362928063
  outer loop
  vertex -13.5 37.7756004 45.8685989
  vertex -12 39.6990013 48.8726997
  vertex -13.5 38.354599 45.6287994
  endloop
 endfacet

 facet normal -0.919266105 0.145866022 0.365613073
  outer loop
  vertex -12 38.9701004 49.1635017
  vertex -12 39.6990013 48.8726997
  vertex -13.5 37.7756004 45.8685989
  endloop
 endfacet

 facet normal -0.918661833 -0.00517277885 0.395010978
  outer loop
  vertex -13.5 37.155201 45.9569016
  vertex -12 36.6451988 49.4387016
  vertex -12 37.4300003 49.4490013
  endloop
 endfacet

 facet normal -0.919048667 -0.0565528721 0.390065819
  outer loop
  vertex -12 36.6451988 49.4387016
  vertex -13.5 36.532299 45.8880997
  vertex -12 35.8684998 49.3260994
  endloop
 endfacet

 facet normal -0.919823408 -0.0430482775 0.389963806
  outer loop
  vertex -12 36.6451988 49.4387016
  vertex -13.5 37.155201 45.9569016
  vertex -13.5 36.532299 45.8880997
  endloop
 endfacet

 facet normal -0.918619215 0.275730073 0.283040047
  outer loop
  vertex -12 41.0125999 48.0195999
  vertex -12 41.5747986 47.4720001
  vertex -13.5 38.8557014 45.2524986
  endloop
 endfacet

 facet normal -0.91954124 0.306704074 0.245716065
  outer loop
  vertex -13.5 38.8557014 45.2524986
  vertex -12 41.5747986 47.4720001
  vertex -13.5 39.2476006 44.7635002
  endloop
 endfacet

 facet normal -0.919327319 0.309016079 0.243611068
  outer loop
  vertex -13.5 39.2476006 44.7635002
  vertex -12 41.5747986 47.4720001
  vertex -12 42.0606995 46.8555984
  endloop
 endfacet

 facet normal 0.918622196 0.193073034 0.344755083
  outer loop
  vertex 13.5 38.354599 45.6287994
  vertex 12 40.3838005 48.4892006
  vertex 12 39.6990013 48.8726997
  endloop
 endfacet

 facet normal 0.919266105 0.145866022 0.365613073
  outer loop
  vertex 13.5 37.7756004 45.8685989
  vertex 12 39.6990013 48.8726997
  vertex 12 38.9701004 49.1635017
  endloop
 endfacet

 facet normal 0.919611156 0.150328025 0.362928063
  outer loop
  vertex 13.5 38.354599 45.6287994
  vertex 12 39.6990013 48.8726997
  vertex 13.5 37.7756004 45.8685989
  endloop
 endfacet

 facet normal 0.918661833 -0.00517277885 0.395010978
  outer loop
  vertex 12 37.4300003 49.4490013
  vertex 12 36.6451988 49.4387016
  vertex 13.5 37.155201 45.9569016
  endloop
 endfacet

 facet normal 0.919823408 -0.0430482775 0.389963806
  outer loop
  vertex 13.5 36.532299 45.8880997
  vertex 13.5 37.155201 45.9569016
  vertex 12 36.6451988 49.4387016
  endloop
 endfacet

 facet normal 0.9191522 0.0462978072 0.391172081
  outer loop
  vertex 12 37.4300003 49.4490013
  vertex 13.5 37.155201 45.9569016
  vertex 12 38.2094002 49.3567009
  endloop
 endfacet

 facet normal 0.919731021 0.0553108007 0.388633013
  outer loop
  vertex 12 38.2094002 49.3567009
  vertex 13.5 37.155201 45.9569016
  vertex 13.5 37.7756004 45.8685989
  endloop
 endfacet

 facet normal 0.981195271 0.0271965098 0.191092044
  outer loop
  vertex 13.5 37.7756004 45.8685989
  vertex 13.5 37.155201 45.9569016
  vertex 16.9466 18.5116005 30.9130001
  endloop
 endfacet

 facet normal 0.966148436 -0.0283076111 0.256429106
  outer loop
  vertex 16.9466 18.5116005 30.9130001
  vertex 13.5 37.155201 45.9569016
  vertex 13.5 36.532299 45.8880997
  endloop
 endfacet

 facet normal 0.918698192 -0.107210025 0.380131096
  outer loop
  vertex 13.5 36.532299 45.8880997
  vertex 12 35.8684998 49.3260994
  vertex 12 35.1130981 49.112999
  endloop
 endfacet

 facet normal 0.91971302 -0.131494999 0.369915009
  outer loop
  vertex 13.5 36.532299 45.8880997
  vertex 12 35.1130981 49.112999
  vertex 16.9466 18.5116005 30.9130001
  endloop
 endfacet

 facet normal 0.899247408 -0.172675908 0.401916772
  outer loop
  vertex 12 35.1130981 49.112999
  vertex 12 34.3919983 48.8031998
  vertex 16.9466 18.5116005 30.9130001
  endloop
 endfacet

 facet normal -5.64453148e-05 0.760409236 -0.649444163
  outer loop
  vertex -19.3223 10.1143999 2.60381007
  vertex -19.5 9.25638008 1.59921002
  vertex -16.9466 27.6364994 23.1196003
  endloop
 endfacet

 facet normal -0.995954752 0.058357086 0.0683272779
  outer loop
  vertex -16.9466 18.5116005 30.9130001
  vertex -16.9466 27.6364994 23.1196003
  vertex -19.5 9.25638008 1.59921002
  endloop
 endfacet

 facet normal -0.98994118 0.0918835178 0.107582025
  outer loop
  vertex -13.5 38.8557014 45.2524986
  vertex -16.9466 27.6364994 23.1196003
  vertex -16.9466 18.5116005 30.9130001
  endloop
 endfacet

 facet normal -0.000570839678 0.760490596 -0.649348617
  outer loop
  vertex -16.9466 27.6364994 23.1196003
  vertex -16.7877007 28.0995998 23.6618004
  vertex -12 41.6783981 39.5605011
  endloop
 endfacet

 facet normal -0.988564193 0.117689021 0.0942865238
  outer loop
  vertex -13.5 39.2476006 44.7635002
  vertex -16.9466 27.6364994 23.1196003
  vertex -13.5 38.8557014 45.2524986
  endloop
 endfacet

 facet normal -0.984719574 0.158718944 0.0716632679
  outer loop
  vertex -13.5 39.2476006 44.7635002
  vertex -13.5 39.5054016 44.1922989
  vertex -16.9466 27.6364994 23.1196003
  endloop
 endfacet

 facet normal -0.975599885 0.216286972 0.0377471931
  outer loop
  vertex -13.5 39.6132011 43.5750008
  vertex -16.9466 27.6364994 23.1196003
  vertex -13.5 39.5054016 44.1922989
  endloop
 endfacet

 facet normal -0.948637128 0.315391034 -0.0248216018
  outer loop
  vertex -13.5 39.6132011 43.5750008
  vertex -13.5 39.5639992 42.9501991
  vertex -16.9466 27.6364994 23.1196003
  endloop
 endfacet

 facet normal -0.919160008 0.38705197 -0.0730463937
  outer loop
  vertex -13.5 39.5639992 42.9501991
  vertex -12 43.0154991 42.3638
  vertex -16.9466 27.6364994 23.1196003
  endloop
 endfacet

 facet normal -0.899246097 0.423983067 -0.107679009
  outer loop
  vertex -12 42.8223 41.6030998
  vertex -16.9466 27.6364994 23.1196003
  vertex -12 43.0154991 42.3638
  endloop
 endfacet

 facet normal -0.826244116 0.523210049 -0.208739027
  outer loop
  vertex -12 42.8223 41.6030998
  vertex -12 42.5315018 40.8740997
  vertex -16.9466 27.6364994 23.1196003
  endloop
 endfacet

 facet normal -0.673409998 0.647931933 -0.355953991
  outer loop
  vertex -16.7877007 28.0995998 23.6618004
  vertex -16.9466 27.6364994 23.1196003
  vertex -12 42.5315018 40.8740997
  endloop
 endfacet

 facet normal 1.02490006e-07 0.760406017 -0.649448037
  outer loop
  vertex 8.29409981 25.2341003 20.3066998
  vertex 6.56273985 30.5970001 26.5858994
  vertex 12 41.6783981 39.5605011
  endloop
 endfacet

 facet normal -3.02094008e-07 0.760406017 -0.649448037
  outer loop
  vertex -19.3223 10.1143999 2.60381007
  vertex -13.1548004 30.4682007 26.4351006
  vertex -8.29409981 25.2341003 20.3066998
  endloop
 endfacet

 facet normal -3.31907017e-07 0.760406017 -0.649448037
  outer loop
  vertex -16.9466 27.6364994 23.1196003
  vertex -13.1548004 30.4682007 26.4351006
  vertex -19.3223 10.1143999 2.60381007
  endloop
 endfacet

 facet normal -2.45562035e-07 0.760406017 -0.649448037
  outer loop
  vertex -8.29409981 25.2341003 20.3066998
  vertex -13.1548004 30.4682007 26.4351006
  vertex -12 41.6783981 39.5605011
  endloop
 endfacet

 facet normal -3.78838052e-07 0.760406017 -0.649448037
  outer loop
  vertex -13.1548004 30.4682007 26.4351006
  vertex -16.9466 27.6364994 23.1196003
  vertex -12 41.6783981 39.5605011
  endloop
 endfacet

 facet normal 0 0.0130893048 -0.999914289
  outer loop
  vertex 19.5 -0.314016014 -5.9917798
  vertex -19.5 -0.314016014 -5.9917798
  vertex 19.5 0.470755011 -5.98150015
  endloop
 endfacet

 facet normal 0 0.0130893048 -0.999914289
  outer loop
  vertex 19.5 0.470755011 -5.98150015
  vertex -19.5 -0.314016014 -5.9917798
  vertex -19.5 0.470755011 -5.98150015
  endloop
 endfacet

 facet normal 0 0.143492058 -0.989651442
  outer loop
  vertex 19.5 0.470755011 -5.98150015
  vertex -19.5 1.24747002 -5.86888981
  vertex 19.5 1.24747002 -5.86888981
  endloop
 endfacet

 facet normal 0 0.143492058 -0.989651442
  outer loop
  vertex 19.5 0.470755011 -5.98150015
  vertex -19.5 0.470755011 -5.98150015
  vertex -19.5 1.24747002 -5.86888981
  endloop
 endfacet

 facet normal 0 -0.71630317 0.697789192
  outer loop
  vertex 12 33.1012001 47.9160995
  vertex -12 32.5535011 47.3539009
  vertex 12 32.5535011 47.3539009
  endloop
 endfacet

 facet normal 0 -0.71630317 0.697789192
  outer loop
  vertex -12 33.1012001 47.9160995
  vertex -12 32.5535011 47.3539009
  vertex 12 33.1012001 47.9160995
  endloop
 endfacet

 facet normal 0 0.716302216 -0.697790205
  outer loop
  vertex -19.5 4.56243992 -3.89668989
  vertex 19.5 4.01478004 -4.45886993
  vertex -19.5 4.01478004 -4.45886993
  endloop
 endfacet

 facet normal 0 0.716302216 -0.697790205
  outer loop
  vertex -19.5 4.56243992 -3.89668989
  vertex 19.5 4.56243992 -3.89668989
  vertex 19.5 4.01478004 -4.45886993
  endloop
 endfacet

 facet normal 0 0.511293232 -0.859406352
  outer loop
  vertex 19.5 2.7239399 -5.34603977
  vertex -19.5 3.39843988 -4.94475985
  vertex 19.5 3.39843988 -4.94475985
  endloop
 endfacet

 facet normal 0 0.511293232 -0.859406352
  outer loop
  vertex 19.5 2.7239399 -5.34603977
  vertex -19.5 2.7239399 -5.34603977
  vertex -19.5 3.39843988 -4.94475985
  endloop
 endfacet

 facet normal 0 0.619093299 -0.785317421
  outer loop
  vertex 19.5 4.01478004 -4.45886993
  vertex -19.5 3.39843988 -4.94475985
  vertex -19.5 4.01478004 -4.45886993
  endloop
 endfacet

 facet normal 0 0.619093299 -0.785317421
  outer loop
  vertex 19.5 3.39843988 -4.94475985
  vertex -19.5 3.39843988 -4.94475985
  vertex 19.5 4.01478004 -4.45886993
  endloop
 endfacet

 facet normal 0 0.271441042 -0.962455094
  outer loop
  vertex 19.5 1.24747002 -5.86888981
  vertex -19.5 2.00284004 -5.65584993
  vertex 19.5 2.00284004 -5.65584993
  endloop
 endfacet

 facet normal 0 0.271441042 -0.962455094
  outer loop
  vertex -19.5 1.24747002 -5.86888981
  vertex -19.5 2.00284004 -5.65584993
  vertex 19.5 1.24747002 -5.86888981
  endloop
 endfacet

 facet normal 0 0.394744039 -0.918791115
  outer loop
  vertex 19.5 2.00284004 -5.65584993
  vertex -19.5 2.00284004 -5.65584993
  vertex 19.5 2.7239399 -5.34603977
  endloop
 endfacet

 facet normal 0 0.394744039 -0.918791115
  outer loop
  vertex 19.5 2.7239399 -5.34603977
  vertex -19.5 2.00284004 -5.65584993
  vertex -19.5 2.7239399 -5.34603977
  endloop
 endfacet

 facet normal 0 -0.918791115 -0.394744039
  outer loop
  vertex 19.5 -5.34603977 -2.7239399
  vertex 19.5 -5.65584993 -2.00284004
  vertex -19.5 -5.65584993 -2.00284004
  endloop
 endfacet

 facet normal 0 -0.918791115 -0.394744039
  outer loop
  vertex -19.5 -5.34603977 -2.7239399
  vertex 19.5 -5.34603977 -2.7239399
  vertex -19.5 -5.65584993 -2.00284004
  endloop
 endfacet

 facet normal 0 0.872492194 -0.488628089
  outer loop
  vertex -12 42.5315018 40.8740997
  vertex 12 42.5315018 40.8740997
  vertex 12 42.1479988 40.1893997
  endloop
 endfacet

 facet normal 0 0.872492194 -0.488628089
  outer loop
  vertex -12 42.1479988 40.1893997
  vertex -12 42.5315018 40.8740997
  vertex 12 42.1479988 40.1893997
  endloop
 endfacet

 facet normal 0 0.801255822 -0.598321855
  outer loop
  vertex -12 41.6783981 39.5605011
  vertex 12 42.1479988 40.1893997
  vertex 12 41.6783981 39.5605011
  endloop
 endfacet

 facet normal 0 0.801255822 -0.598321855
  outer loop
  vertex -12 42.1479988 40.1893997
  vertex 12 42.1479988 40.1893997
  vertex -12 41.6783981 39.5605011
  endloop
 endfacet

 facet normal 0 -0.370556891 -0.928809762
  outer loop
  vertex -19.5 -1.85409999 -5.70633984
  vertex 19.5 -1.85409999 -5.70633984
  vertex -19.5 -2.58307004 -5.41551018
  endloop
 endfacet

 facet normal 0 -0.370556891 -0.928809762
  outer loop
  vertex 19.5 -1.85409999 -5.70633984
  vertex 19.5 -2.58307004 -5.41551018
  vertex -19.5 -2.58307004 -5.41551018
  endloop
 endfacet

 facet normal 0 -0.697790205 -0.716302216
  outer loop
  vertex -19.5 -3.89668989 -4.56243992
  vertex 19.5 -3.89668989 -4.56243992
  vertex -19.5 -4.45886993 -4.01478004
  endloop
 endfacet

 facet normal 0 -0.697790205 -0.716302216
  outer loop
  vertex 19.5 -3.89668989 -4.56243992
  vertex 19.5 -4.45886993 -4.01478004
  vertex -19.5 -4.45886993 -4.01478004
  endloop
 endfacet

 facet normal 0 -0.993068337 0.117538042
  outer loop
  vertex 19.5 -5.89952993 1.09341002
  vertex -19.5 -5.9917798 0.314016014
  vertex 19.5 -5.9917798 0.314016014
  endloop
 endfacet

 facet normal 0 -0.993068337 0.117538042
  outer loop
  vertex -19.5 -5.89952993 1.09341002
  vertex -19.5 -5.9917798 0.314016014
  vertex 19.5 -5.89952993 1.09341002
  endloop
 endfacet

 facet normal 0 -0.999914289 -0.0130893048
  outer loop
  vertex 19.5 -5.98150015 -0.470755011
  vertex -19.5 -5.9917798 0.314016014
  vertex -19.5 -5.98150015 -0.470755011
  endloop
 endfacet

 facet normal 0 -0.999914289 -0.0130893048
  outer loop
  vertex 19.5 -5.9917798 0.314016014
  vertex -19.5 -5.9917798 0.314016014
  vertex 19.5 -5.98150015 -0.470755011
  endloop
 endfacet

 facet normal 0 -0.962455094 -0.271441042
  outer loop
  vertex 19.5 -5.65584993 -2.00284004
  vertex -19.5 -5.86888981 -1.24747002
  vertex -19.5 -5.65584993 -2.00284004
  endloop
 endfacet

 facet normal 0 -0.962455094 -0.271441042
  outer loop
  vertex 19.5 -5.86888981 -1.24747002
  vertex -19.5 -5.86888981 -1.24747002
  vertex 19.5 -5.65584993 -2.00284004
  endloop
 endfacet

 facet normal 0 -0.989651442 -0.143492058
  outer loop
  vertex 19.5 -5.98150015 -0.470755011
  vertex -19.5 -5.98150015 -0.470755011
  vertex -19.5 -5.86888981 -1.24747002
  endloop
 endfacet

 facet normal 0 -0.989651442 -0.143492058
  outer loop
  vertex 19.5 -5.98150015 -0.470755011
  vertex -19.5 -5.86888981 -1.24747002
  vertex 19.5 -5.86888981 -1.24747002
  endloop
 endfacet

 facet normal 0 0.993069708 -0.117526971
  outer loop
  vertex -12 43.0154991 42.3638
  vertex -12 43.1077003 43.1431999
  vertex 12 43.0154991 42.3638
  endloop
 endfacet

 facet normal 0 0.993069708 -0.117526971
  outer loop
  vertex 12 43.1077003 43.1431999
  vertex 12 43.0154991 42.3638
  vertex -12 43.1077003 43.1431999
  endloop
 endfacet

 facet normal 0 -0.801254094 0.59832412
  outer loop
  vertex 19.5 -4.56243992 3.89668989
  vertex -19.5 -5.03202009 3.2678299
  vertex 19.5 -5.03202009 3.2678299
  endloop
 endfacet

 facet normal 0 -0.801254094 0.59832412
  outer loop
  vertex -19.5 -4.56243992 3.89668989
  vertex -19.5 -5.03202009 3.2678299
  vertex 19.5 -4.56243992 3.89668989
  endloop
 endfacet

 facet normal 0 -0.872495413 0.488622248
  outer loop
  vertex 19.5 -5.03202009 3.2678299
  vertex -19.5 -5.03202009 3.2678299
  vertex 19.5 -5.41551018 2.58307004
  endloop
 endfacet

 facet normal 0 -0.872495413 0.488622248
  outer loop
  vertex -19.5 -5.03202009 3.2678299
  vertex -19.5 -5.41551018 2.58307004
  vertex 19.5 -5.41551018 2.58307004
  endloop
 endfacet

 facet normal 0 -0.928809762 0.370556891
  outer loop
  vertex 19.5 -5.41551018 2.58307004
  vertex -19.5 -5.70633984 1.85409999
  vertex 19.5 -5.70633984 1.85409999
  endloop
 endfacet

 facet normal 0 -0.928809762 0.370556891
  outer loop
  vertex -19.5 -5.41551018 2.58307004
  vertex -19.5 -5.70633984 1.85409999
  vertex 19.5 -5.41551018 2.58307004
  endloop
 endfacet

 facet normal 0 -0.969231069 0.246153027
  outer loop
  vertex 19.5 -5.70633984 1.85409999
  vertex -19.5 -5.70633984 1.85409999
  vertex 19.5 -5.89952993 1.09341002
  endloop
 endfacet

 facet normal 0 -0.969231069 0.246153027
  outer loop
  vertex -19.5 -5.70633984 1.85409999
  vertex -19.5 -5.89952993 1.09341002
  vertex 19.5 -5.89952993 1.09341002
  endloop
 endfacet

 facet normal 0 -0.760406017 0.649448037
  outer loop
  vertex -12 32.5535011 47.3539009
  vertex -7.39096022 22.403801 35.4701004
  vertex 12 32.5535011 47.3539009
  endloop
 endfacet

 facet normal 0 -0.760406017 0.649448037
  outer loop
  vertex 7.39096022 22.403801 35.4701004
  vertex 12 32.5535011 47.3539009
  vertex -7.39096022 22.403801 35.4701004
  endloop
 endfacet

 facet normal 0 0.859402895 0.511298954
  outer loop
  vertex 12 42.0606995 46.8555984
  vertex 12 42.4620018 46.1810989
  vertex -12 42.0606995 46.8555984
  endloop
 endfacet

 facet normal 0 0.859402895 0.511298954
  outer loop
  vertex -12 42.0606995 46.8555984
  vertex 12 42.4620018 46.1810989
  vertex -12 42.4620018 46.1810989
  endloop
 endfacet

 facet normal 0 -0.760406017 0.649448037
  outer loop
  vertex -19.5 -4.56243992 3.89668989
  vertex 19.5 -4.56243992 3.89668989
  vertex -19.3223 0.989513993 10.3971996
  endloop
 endfacet

 facet normal 0 -0.760406017 0.649448037
  outer loop
  vertex 19.3223 0.989513993 10.3971996
  vertex -19.3223 0.989513993 10.3971996
  vertex 19.5 -4.56243992 3.89668989
  endloop
 endfacet

 facet normal 0 -0.117538042 -0.993068337
  outer loop
  vertex -19.5 -0.314016014 -5.9917798
  vertex 19.5 -1.09341002 -5.89952993
  vertex -19.5 -1.09341002 -5.89952993
  endloop
 endfacet

 facet normal 0 -0.117538042 -0.993068337
  outer loop
  vertex -19.5 -0.314016014 -5.9917798
  vertex 19.5 -0.314016014 -5.9917798
  vertex 19.5 -1.09341002 -5.89952993
  endloop
 endfacet

 facet normal 0 -0.246153027 -0.969231069
  outer loop
  vertex -19.5 -1.85409999 -5.70633984
  vertex -19.5 -1.09341002 -5.89952993
  vertex 19.5 -1.09341002 -5.89952993
  endloop
 endfacet

 facet normal 0 -0.246153027 -0.969231069
  outer loop
  vertex 19.5 -1.09341002 -5.89952993
  vertex 19.5 -1.85409999 -5.70633984
  vertex -19.5 -1.85409999 -5.70633984
  endloop
 endfacet

 facet normal 0 -0.488622248 -0.872495413
  outer loop
  vertex 19.5 -2.58307004 -5.41551018
  vertex 19.5 -3.2678299 -5.03202009
  vertex -19.5 -2.58307004 -5.41551018
  endloop
 endfacet

 facet normal 0 -0.488622248 -0.872495413
  outer loop
  vertex -19.5 -2.58307004 -5.41551018
  vertex 19.5 -3.2678299 -5.03202009
  vertex -19.5 -3.2678299 -5.03202009
  endloop
 endfacet

 facet normal 0 -0.59832412 -0.801254094
  outer loop
  vertex -19.5 -3.2678299 -5.03202009
  vertex 19.5 -3.2678299 -5.03202009
  vertex -19.5 -3.89668989 -4.56243992
  endloop
 endfacet

 facet normal 0 -0.59832412 -0.801254094
  outer loop
  vertex 19.5 -3.2678299 -5.03202009
  vertex 19.5 -3.89668989 -4.56243992
  vertex -19.5 -3.89668989 -4.56243992
  endloop
 endfacet

 facet normal -1 0 0
  outer loop
  vertex -19.5 3.39843988 -4.94475985
  vertex -19.5 -4.94475985 -3.39843988
  vertex -19.5 4.01478004 -4.45886993
  endloop
 endfacet

 facet normal -1 0 0
  outer loop
  vertex -19.5 -1.85409999 -5.70633984
  vertex -19.5 -4.94475985 -3.39843988
  vertex -19.5 -1.09341002 -5.89952993
  endloop
 endfacet

 facet normal -1 0 0
  outer loop
  vertex -19.5 -4.94475985 -3.39843988
  vertex -19.5 -0.314016014 -5.9917798
  vertex -19.5 -1.09341002 -5.89952993
  endloop
 endfacet

 facet normal -1 0 0
  outer loop
  vertex -19.5 -4.94475985 -3.39843988
  vertex -19.5 -3.2678299 -5.03202009
  vertex -19.5 -3.89668989 -4.56243992
  endloop
 endfacet

 facet normal -1 0 0
  outer loop
  vertex -19.5 -5.03202009 3.2678299
  vertex -19.5 -4.94475985 -3.39843988
  vertex -19.5 -5.41551018 2.58307004
  endloop
 endfacet

 facet normal -1 0 0
  outer loop
  vertex -19.5 9.25638008 1.59921002
  vertex -19.5 -4.94475985 -3.39843988
  vertex -19.5 0.131505996 9.39258957
  endloop
 endfacet

 facet normal -1 0 0
  outer loop
  vertex -19.5 -0.314016014 -5.9917798
  vertex -19.5 -4.94475985 -3.39843988
  vertex -19.5 0.470755011 -5.98150015
  endloop
 endfacet

 facet normal -1 0 0
  outer loop
  vertex -19.5 -3.89668989 -4.56243992
  vertex -19.5 -4.45886993 -4.01478004
  vertex -19.5 -4.94475985 -3.39843988
  endloop
 endfacet

 facet normal -1 0 0
  outer loop
  vertex -19.5 -4.94475985 -3.39843988
  vertex -19.5 2.00284004 -5.65584993
  vertex -19.5 1.24747002 -5.86888981
  endloop
 endfacet

 facet normal -1 0 0
  outer loop
  vertex -19.5 4.01478004 -4.45886993
  vertex -19.5 -4.94475985 -3.39843988
  vertex -19.5 4.56243992 -3.89668989
  endloop
 endfacet

 facet normal -1 0 0
  outer loop
  vertex -19.5 -4.94475985 -3.39843988
  vertex -19.5 1.24747002 -5.86888981
  vertex -19.5 0.470755011 -5.98150015
  endloop
 endfacet

 facet normal -1 0 0
  outer loop
  vertex -19.5 -4.94475985 -3.39843988
  vertex -19.5 -1.85409999 -5.70633984
  vertex -19.5 -2.58307004 -5.41551018
  endloop
 endfacet

 facet normal -1 0 0
  outer loop
  vertex -19.5 -3.2678299 -5.03202009
  vertex -19.5 -4.94475985 -3.39843988
  vertex -19.5 -2.58307004 -5.41551018
  endloop
 endfacet

 facet normal -1 0 0
  outer loop
  vertex -19.5 -4.94475985 -3.39843988
  vertex -19.5 -5.34603977 -2.7239399
  vertex -19.5 -5.65584993 -2.00284004
  endloop
 endfacet

 facet normal -1 0 0
  outer loop
  vertex -19.5 -4.94475985 -3.39843988
  vertex -19.5 3.39843988 -4.94475985
  vertex -19.5 2.7239399 -5.34603977
  endloop
 endfacet

 facet normal -1 0 0
  outer loop
  vertex -19.5 2.00284004 -5.65584993
  vertex -19.5 -4.94475985 -3.39843988
  vertex -19.5 2.7239399 -5.34603977
  endloop
 endfacet

 facet normal -1 0 0
  outer loop
  vertex -19.5 4.56243992 -3.89668989
  vertex -19.5 -4.94475985 -3.39843988
  vertex -19.5 9.25638008 1.59921002
  endloop
 endfacet

 facet normal -1 0 0
  outer loop
  vertex -19.5 -5.70633984 1.85409999
  vertex -19.5 -5.41551018 2.58307004
  vertex -19.5 -4.94475985 -3.39843988
  endloop
 endfacet

 facet normal -1 0 0
  outer loop
  vertex -19.5 -5.9917798 0.314016014
  vertex -19.5 -4.94475985 -3.39843988
  vertex -19.5 -5.98150015 -0.470755011
  endloop
 endfacet

 facet normal -1 0 0
  outer loop
  vertex -19.5 -5.86888981 -1.24747002
  vertex -19.5 -5.98150015 -0.470755011
  vertex -19.5 -4.94475985 -3.39843988
  endloop
 endfacet

 facet normal -1 0 0
  outer loop
  vertex -19.5 0.131505996 9.39258957
  vertex -19.5 -4.94475985 -3.39843988
  vertex -19.5 -4.56243992 3.89668989
  endloop
 endfacet

 facet normal -1 0 0
  outer loop
  vertex -19.5 -5.9917798 0.314016014
  vertex -19.5 -5.89952993 1.09341002
  vertex -19.5 -4.94475985 -3.39843988
  endloop
 endfacet

 facet normal -1 0 0
  outer loop
  vertex -19.5 -5.86888981 -1.24747002
  vertex -19.5 -4.94475985 -3.39843988
  vertex -19.5 -5.65584993 -2.00284004
  endloop
 endfacet

 facet normal -1 0 0
  outer loop
  vertex -19.5 -5.03202009 3.2678299
  vertex -19.5 -4.56243992 3.89668989
  vertex -19.5 -4.94475985 -3.39843988
  endloop
 endfacet

 facet normal -1 0 0
  outer loop
  vertex -19.5 -5.70633984 1.85409999
  vertex -19.5 -4.94475985 -3.39843988
  vertex -19.5 -5.89952993 1.09341002
  endloop
 endfacet

 facet normal 1 0 0
  outer loop
  vertex 19.5 2.7239399 -5.34603977
  vertex 19.5 3.39843988 -4.94475985
  vertex 19.5 -4.94475985 -3.39843988
  endloop
 endfacet

 facet normal 1 0 0
  outer loop
  vertex 19.5 0.470755011 -5.98150015
  vertex 19.5 1.24747002 -5.86888981
  vertex 19.5 -4.94475985 -3.39843988
  endloop
 endfacet

 facet normal 1 0 0
  outer loop
  vertex 19.5 1.24747002 -5.86888981
  vertex 19.5 2.00284004 -5.65584993
  vertex 19.5 -4.94475985 -3.39843988
  endloop
 endfacet

 facet normal 1 0 0
  outer loop
  vertex 19.5 -5.89952993 1.09341002
  vertex 19.5 -4.94475985 -3.39843988
  vertex 19.5 -5.70633984 1.85409999
  endloop
 endfacet

 facet normal 1 0 0
  outer loop
  vertex 19.5 -4.56243992 3.89668989
  vertex 19.5 -5.03202009 3.2678299
  vertex 19.5 -4.94475985 -3.39843988
  endloop
 endfacet

 facet normal 1 0 0
  outer loop
  vertex 19.5 -5.86888981 -1.24747002
  vertex 19.5 -5.65584993 -2.00284004
  vertex 19.5 -4.94475985 -3.39843988
  endloop
 endfacet

 facet normal 1 0 0
  outer loop
  vertex 19.5 -5.41551018 2.58307004
  vertex 19.5 -5.70633984 1.85409999
  vertex 19.5 -4.94475985 -3.39843988
  endloop
 endfacet

 facet normal 1 0 0
  outer loop
  vertex 19.5 0.470755011 -5.98150015
  vertex 19.5 -4.94475985 -3.39843988
  vertex 19.5 -0.314016014 -5.9917798
  endloop
 endfacet

 facet normal 1 0 0
  outer loop
  vertex 19.5 0.131505996 9.39258957
  vertex 19.5 -4.56243992 3.89668989
  vertex 19.5 -4.94475985 -3.39843988
  endloop
 endfacet

 facet normal 1 0 0
  outer loop
  vertex 19.5 4.01478004 -4.45886993
  vertex 19.5 -4.94475985 -3.39843988
  vertex 19.5 3.39843988 -4.94475985
  endloop
 endfacet

 facet normal 1 0 0
  outer loop
  vertex 19.5 -5.89952993 1.09341002
  vertex 19.5 -5.9917798 0.314016014
  vertex 19.5 -4.94475985 -3.39843988
  endloop
 endfacet

 facet normal 1 0 0
  outer loop
  vertex 19.5 2.7239399 -5.34603977
  vertex 19.5 -4.94475985 -3.39843988
  vertex 19.5 2.00284004 -5.65584993
  endloop
 endfacet

 facet normal 1 0 0
  outer loop
  vertex 19.5 -1.85409999 -5.70633984
  vertex 19.5 -4.94475985 -3.39843988
  vertex 19.5 -2.58307004 -5.41551018
  endloop
 endfacet

 facet normal 1 0 0
  outer loop
  vertex 19.5 -5.41551018 2.58307004
  vertex 19.5 -4.94475985 -3.39843988
  vertex 19.5 -5.03202009 3.2678299
  endloop
 endfacet

 facet normal 1 0 0
  outer loop
  vertex 19.5 -5.98150015 -0.470755011
  vertex 19.5 -5.86888981 -1.24747002
  vertex 19.5 -4.94475985 -3.39843988
  endloop
 endfacet

 facet normal 1 0 0
  outer loop
  vertex 19.5 4.01478004 -4.45886993
  vertex 19.5 4.56243992 -3.89668989
  vertex 19.5 -4.94475985 -3.39843988
  endloop
 endfacet

 facet normal 1 0 0
  outer loop
  vertex 19.5 -5.34603977 -2.7239399
  vertex 19.5 -4.94475985 -3.39843988
  vertex 19.5 -5.65584993 -2.00284004
  endloop
 endfacet

 facet normal 1 0 0
  outer loop
  vertex 19.5 -1.09341002 -5.89952993
  vertex 19.5 -4.94475985 -3.39843988
  vertex 19.5 -1.85409999 -5.70633984
  endloop
 endfacet

 facet normal 1 0 0
  outer loop
  vertex 19.5 -3.2678299 -5.03202009
  vertex 19.5 -4.94475985 -3.39843988
  vertex 19.5 -3.89668989 -4.56243992
  endloop
 endfacet

 facet normal 1 0 0
  outer loop
  vertex 19.5 -4.94475985 -3.39843988
  vertex 19.5 9.25638008 1.59921002
  vertex 19.5 0.131505996 9.39258957
  endloop
 endfacet

 facet normal 1 0 0
  outer loop
  vertex 19.5 -3.89668989 -4.56243992
  vertex 19.5 -4.94475985 -3.39843988
  vertex 19.5 -4.45886993 -4.01478004
  endloop
 endfacet

 facet normal 1 0 0
  outer loop
  vertex 19.5 -5.98150015 -0.470755011
  vertex 19.5 -4.94475985 -3.39843988
  vertex 19.5 -5.9917798 0.314016014
  endloop
 endfacet

 facet normal 1 0 0
  outer loop
  vertex 19.5 9.25638008 1.59921002
  vertex 19.5 -4.94475985 -3.39843988
  vertex 19.5 4.56243992 -3.89668989
  endloop
 endfacet

 facet normal 1 0 0
  outer loop
  vertex 19.5 -1.09341002 -5.89952993
  vertex 19.5 -0.314016014 -5.9917798
  vertex 19.5 -4.94475985 -3.39843988
  endloop
 endfacet

 facet normal 1 0 0
  outer loop
  vertex 19.5 -3.2678299 -5.03202009
  vertex 19.5 -2.58307004 -5.41551018
  vertex 19.5 -4.94475985 -3.39843988
  endloop
 endfacet

 facet normal 0 -0.785317421 -0.619093299
  outer loop
  vertex 19.5 -4.45886993 -4.01478004
  vertex 19.5 -4.94475985 -3.39843988
  vertex -19.5 -4.45886993 -4.01478004
  endloop
 endfacet

 facet normal 0 -0.785317421 -0.619093299
  outer loop
  vertex -19.5 -4.94475985 -3.39843988
  vertex -19.5 -4.45886993 -4.01478004
  vertex 19.5 -4.94475985 -3.39843988
  endloop
 endfacet

 facet normal 0 -0.859406352 -0.511293232
  outer loop
  vertex 19.5 -5.34603977 -2.7239399
  vertex -19.5 -5.34603977 -2.7239399
  vertex 19.5 -4.94475985 -3.39843988
  endloop
 endfacet

 facet normal 0 -0.859406352 -0.511293232
  outer loop
  vertex -19.5 -4.94475985 -3.39843988
  vertex 19.5 -4.94475985 -3.39843988
  vertex -19.5 -5.34603977 -2.7239399
  endloop
 endfacet

 facet normal 0 -0.760406017 0.649448037
  outer loop
  vertex -7.39096022 22.403801 35.4701004
  vertex 8.29409981 16.1091995 28.1000996
  vertex 7.39096022 22.403801 35.4701004
  endloop
 endfacet

 facet normal 0 -0.760406017 0.649448037
  outer loop
  vertex 8.29409981 16.1091995 28.1000996
  vertex -7.39096022 22.403801 35.4701004
  vertex -8.29409981 16.1091995 28.1000996
  endloop
 endfacet

 facet normal 0 0.928809762 -0.370556891
  outer loop
  vertex -12 42.5315018 40.8740997
  vertex 12 42.8223 41.6030998
  vertex 12 42.5315018 40.8740997
  endloop
 endfacet

 facet normal 0 0.928809762 -0.370556891
  outer loop
  vertex -12 42.8223 41.6030998
  vertex 12 42.8223 41.6030998
  vertex -12 42.5315018 40.8740997
  endloop
 endfacet

 facet normal 0 0.969230592 -0.246154875
  outer loop
  vertex -12 43.0154991 42.3638
  vertex 12 42.8223 41.6030998
  vertex -12 42.8223 41.6030998
  endloop
 endfacet

 facet normal 0 0.969230592 -0.246154875
  outer loop
  vertex 12 43.0154991 42.3638
  vertex 12 42.8223 41.6030998
  vertex -12 43.0154991 42.3638
  endloop
 endfacet

 facet normal 0 0.117535949 0.993068576
  outer loop
  vertex -12 37.4300003 49.4490013
  vertex 12 37.4300003 49.4490013
  vertex -12 38.2094002 49.3567009
  endloop
 endfacet

 facet normal 0 0.117535949 0.993068576
  outer loop
  vertex 12 37.4300003 49.4490013
  vertex 12 38.2094002 49.3567009
  vertex -12 38.2094002 49.3567009
  endloop
 endfacet

 facet normal 0 0.246154875 0.969230592
  outer loop
  vertex 12 38.2094002 49.3567009
  vertex 12 38.9701004 49.1635017
  vertex -12 38.2094002 49.3567009
  endloop
 endfacet

 facet normal 0 0.246154875 0.969230592
  outer loop
  vertex -12 38.9701004 49.1635017
  vertex -12 38.2094002 49.3567009
  vertex 12 38.9701004 49.1635017
  endloop
 endfacet

 facet normal 0 -0.619091094 0.785319149
  outer loop
  vertex -12 33.1012001 47.9160995
  vertex 12 33.1012001 47.9160995
  vertex 12 33.7174988 48.4020004
  endloop
 endfacet

 facet normal 0 -0.619091094 0.785319149
  outer loop
  vertex -12 33.7174988 48.4020004
  vertex -12 33.1012001 47.9160995
  vertex 12 33.7174988 48.4020004
  endloop
 endfacet

 facet normal 0 -0.511297822 0.85940367
  outer loop
  vertex 12 33.7174988 48.4020004
  vertex 12 34.3919983 48.8031998
  vertex -12 33.7174988 48.4020004
  endloop
 endfacet

 facet normal 0 -0.511297822 0.85940367
  outer loop
  vertex -12 33.7174988 48.4020004
  vertex 12 34.3919983 48.8031998
  vertex -12 34.3919983 48.8031998
  endloop
 endfacet

 facet normal 0 0.760406017 -0.649448037
  outer loop
  vertex -19.5 4.56243992 -3.89668989
  vertex -19.3223 10.1143999 2.60381007
  vertex 19.5 4.56243992 -3.89668989
  endloop
 endfacet

 facet normal 0 0.760406017 -0.649448037
  outer loop
  vertex 19.5 4.56243992 -3.89668989
  vertex -19.3223 10.1143999 2.60381007
  vertex 19.3223 10.1143999 2.60381007
  endloop
 endfacet

 facet normal 0 0.760406017 -0.649448037
  outer loop
  vertex 8.29409981 25.2341003 20.3066998
  vertex -19.3223 10.1143999 2.60381007
  vertex -8.29409981 25.2341003 20.3066998
  endloop
 endfacet

 facet normal 0 0.760406017 -0.649448037
  outer loop
  vertex 19.3223 10.1143999 2.60381007
  vertex -19.3223 10.1143999 2.60381007
  vertex 8.29409981 25.2341003 20.3066998
  endloop
 endfacet

 facet normal 0 0.999914408 0.0130844051
  outer loop
  vertex -12 43.1077003 43.1431999
  vertex 12 43.0974998 43.9280014
  vertex 12 43.1077003 43.1431999
  endloop
 endfacet

 facet normal 0 0.999914408 0.0130844051
  outer loop
  vertex -12 43.0974998 43.9280014
  vertex 12 43.0974998 43.9280014
  vertex -12 43.1077003 43.1431999
  endloop
 endfacet

 facet normal 0 0.598317266 0.801259279
  outer loop
  vertex 12 40.3838005 48.4892006
  vertex 12 41.0125999 48.0195999
  vertex -12 40.3838005 48.4892006
  endloop
 endfacet

 facet normal 0 0.598317266 0.801259279
  outer loop
  vertex 12 41.0125999 48.0195999
  vertex -12 41.0125999 48.0195999
  vertex -12 40.3838005 48.4892006
  endloop
 endfacet

 facet normal 0 0.918795943 0.394733012
  outer loop
  vertex 12 42.4620018 46.1810989
  vertex 12 42.771801 45.4599991
  vertex -12 42.4620018 46.1810989
  endloop
 endfacet

 facet normal 0 0.918795943 0.394733012
  outer loop
  vertex -12 42.771801 45.4599991
  vertex -12 42.4620018 46.1810989
  vertex 12 42.771801 45.4599991
  endloop
 endfacet

 facet normal 0 -0.760406017 0.649448037
  outer loop
  vertex 19.3223 0.989513993 10.3971996
  vertex 17.9755993 2.46591997 12.1258001
  vertex -19.3223 0.989513993 10.3971996
  endloop
 endfacet

 facet normal 0 -0.760406017 0.649448037
  outer loop
  vertex -19.3223 0.989513993 10.3971996
  vertex 17.9755993 2.46591997 12.1258001
  vertex -17.9755993 2.46591997 12.1258001
  endloop
 endfacet

 facet normal 0 -0.760406017 0.649448037
  outer loop
  vertex 17.9755993 2.46591997 12.1258001
  vertex 8.29409981 16.1091995 28.1000996
  vertex -8.29409981 16.1091995 28.1000996
  endloop
 endfacet

 facet normal 0 -0.760406017 0.649448037
  outer loop
  vertex -17.9755993 2.46591997 12.1258001
  vertex 17.9755993 2.46591997 12.1258001
  vertex -8.29409981 16.1091995 28.1000996
  endloop
 endfacet

 facet normal 0 0.9624542 0.271444052
  outer loop
  vertex -12 42.9847984 44.7047005
  vertex 12 42.771801 45.4599991
  vertex 12 42.9847984 44.7047005
  endloop
 endfacet

 facet normal 0 0.9624542 0.271444052
  outer loop
  vertex 12 42.771801 45.4599991
  vertex -12 42.9847984 44.7047005
  vertex -12 42.771801 45.4599991
  endloop
 endfacet

 facet normal 0 0.989650726 0.14349696
  outer loop
  vertex -12 42.9847984 44.7047005
  vertex 12 43.0974998 43.9280014
  vertex -12 43.0974998 43.9280014
  endloop
 endfacet

 facet normal 0 0.989650726 0.14349696
  outer loop
  vertex 12 43.0974998 43.9280014
  vertex -12 42.9847984 44.7047005
  vertex 12 42.9847984 44.7047005
  endloop
 endfacet

 facet normal 0 -0.143482983 0.989652812
  outer loop
  vertex 12 35.8684998 49.3260994
  vertex -12 36.6451988 49.4387016
  vertex -12 35.8684998 49.3260994
  endloop
 endfacet

 facet normal 0 -0.143482983 0.989652812
  outer loop
  vertex 12 35.8684998 49.3260994
  vertex 12 36.6451988 49.4387016
  vertex -12 36.6451988 49.4387016
  endloop
 endfacet

 facet normal 0 -0.0130942017 0.999914229
  outer loop
  vertex -12 37.4300003 49.4490013
  vertex -12 36.6451988 49.4387016
  vertex 12 37.4300003 49.4490013
  endloop
 endfacet

 facet normal 0 -0.0130942017 0.999914229
  outer loop
  vertex 12 37.4300003 49.4490013
  vertex -12 36.6451988 49.4387016
  vertex 12 36.6451988 49.4387016
  endloop
 endfacet

 facet normal 0 0.697796762 0.716295779
  outer loop
  vertex 12 41.0125999 48.0195999
  vertex -12 41.5747986 47.4720001
  vertex -12 41.0125999 48.0195999
  endloop
 endfacet

 facet normal 0 0.697796762 0.716295779
  outer loop
  vertex 12 41.5747986 47.4720001
  vertex -12 41.5747986 47.4720001
  vertex 12 41.0125999 48.0195999
  endloop
 endfacet

 facet normal 0 0.785313427 0.619098365
  outer loop
  vertex 12 42.0606995 46.8555984
  vertex -12 42.0606995 46.8555984
  vertex -12 41.5747986 47.4720001
  endloop
 endfacet

 facet normal 0 0.785313427 0.619098365
  outer loop
  vertex 12 41.5747986 47.4720001
  vertex 12 42.0606995 46.8555984
  vertex -12 41.5747986 47.4720001
  endloop
 endfacet

 facet normal 0 0.488623768 0.872494578
  outer loop
  vertex -12 40.3838005 48.4892006
  vertex 12 39.6990013 48.8726997
  vertex 12 40.3838005 48.4892006
  endloop
 endfacet

 facet normal 0 0.488623768 0.872494578
  outer loop
  vertex -12 39.6990013 48.8726997
  vertex 12 39.6990013 48.8726997
  vertex -12 40.3838005 48.4892006
  endloop
 endfacet

 facet normal 0 0.370559841 0.92880863
  outer loop
  vertex 12 38.9701004 49.1635017
  vertex 12 39.6990013 48.8726997
  vertex -12 38.9701004 49.1635017
  endloop
 endfacet

 facet normal 0 0.370559841 0.92880863
  outer loop
  vertex -12 39.6990013 48.8726997
  vertex -12 38.9701004 49.1635017
  vertex 12 39.6990013 48.8726997
  endloop
 endfacet

 facet normal 0 -0.2714459 0.962453663
  outer loop
  vertex 12 35.8684998 49.3260994
  vertex -12 35.8684998 49.3260994
  vertex 12 35.1130981 49.112999
  endloop
 endfacet

 facet normal 0 -0.2714459 0.962453663
  outer loop
  vertex -12 35.1130981 49.112999
  vertex 12 35.1130981 49.112999
  vertex -12 35.8684998 49.3260994
  endloop
 endfacet

 facet normal 0 -0.394742012 0.918792009
  outer loop
  vertex -12 35.1130981 49.112999
  vertex -12 34.3919983 48.8031998
  vertex 12 35.1130981 49.112999
  endloop
 endfacet

 facet normal 0 -0.394742012 0.918792009
  outer loop
  vertex 12 34.3919983 48.8031998
  vertex 12 35.1130981 49.112999
  vertex -12 34.3919983 48.8031998
  endloop
 endfacet

 facet normal 0 0.760406017 -0.649448037
  outer loop
  vertex 12 41.6783981 39.5605011
  vertex 6.56273985 30.5970001 26.5858994
  vertex -12 41.6783981 39.5605011
  endloop
 endfacet

 facet normal 0 0.760406017 -0.649448037
  outer loop
  vertex -12 41.6783981 39.5605011
  vertex 6.56273985 30.5970001 26.5858994
  vertex -6.56273985 30.5970001 26.5858994
  endloop
 endfacet

 facet normal 0 0.760406017 -0.649448037
  outer loop
  vertex 8.29409981 25.2341003 20.3066998
  vertex -8.29409981 25.2341003 20.3066998
  vertex 6.56273985 30.5970001 26.5858994
  endloop
 endfacet

 facet normal 0 0.760406017 -0.649448037
  outer loop
  vertex -6.56273985 30.5970001 26.5858994
  vertex 6.56273985 30.5970001 26.5858994
  vertex -8.29409981 25.2341003 20.3066998
  endloop
 endfacet

endsolid AssimpScene
